<svg xmlns="http://www.w3.org/2000/svg" xmlns:xlink="http://www.w3.org/1999/xlink" width="1917.933" height="734.894" viewBox="0 0 1917.933 734.894">
    <defs>
        <linearGradient id="a" y1="0.063" x2="1" y2="1" gradientUnits="objectBoundingBox">
            <stop offset="0" stop-color="#673ab7" />
            <stop offset="1" stop-color="#561ebb" />
        </linearGradient>
        <linearGradient id="b" x1="0.087" y1="-0.051" x2="1.055" y2="1.618" gradientUnits="objectBoundingBox">
            <stop offset="0" stop-color="#e2f3f8" />
            <stop offset="1" stop-color="#d7e4ff" />
        </linearGradient>
        <linearGradient id="c" x1="-108.12" y1="-0.051" x2="-107.152" y2="1.618" xlink:href="#b" />
        <style>
            #braco_mulher {
                animation: 2s ease braco infinite;
            }
            @keyframes braco {
                0%, 100% {
                    transform: rotate(0) translateX(80px) translateY(10px);
                    transform-origin: bottom left;
                }

                50% {
                    transform: rotate(-6deg) translateX(130px) translateY(20px);
                }
            }
        </style>
    </defs>
    <g transform="translate(-2.067 -2281.106)">
        <path d="M2372.933,2268.186s-197.06,132.157-333.679,192.436-255.248-22.128-486.778-22.128S1283.57,2587.126,970.4,2523,455,2619.943,455,2619.943V2904H2372.933Z" transform="translate(-452.933 112)" fill="url(#a)" />
        <ellipse cx="143" cy="22" rx="143" ry="22" transform="translate(1183.183 2607)" opacity="0.15" />
        <g transform="translate(840.286 2167.353)">
            <g transform="translate(354.301 195.855)">
                <rect width="72.852" height="89.424" transform="translate(94.217 20.38)" fill="#131637" />
                <circle cx="26.562" cy="26.562" r="26.562" transform="translate(73.821 73.434)" fill="#131637" />
                <path d="M439.88,177.891a26.563,26.563,0,1,1-26.563-26.563A26.563,26.563,0,0,1,439.88,177.891Z" transform="translate(-252.414 -77.895)" fill="#131637" />
                <path d="M445.813,184.351a29.09,29.09,0,1,1-29.088-29.092A29.091,29.091,0,0,1,445.813,184.351Z" transform="translate(-249.655 -65.554)" fill="#131637" />
                <path d="M427.27,184.351a29.092,29.092,0,1,1-29.092-29.092A29.094,29.094,0,0,1,427.27,184.351Z" transform="translate(-307.885 -65.554)" fill="#131637" />
                <circle cx="6.597" cy="6.597" r="6.597" transform="translate(159.41 65.092)" fill="#131637" />
                <path d="M388.631,155.911a6.6,6.6,0,1,1-6.6-6.6A6.6,6.6,0,0,1,388.631,155.911Z" transform="translate(-287.94 -84.221)" fill="#131637" />
                <g transform="translate(55.579)">
                    <path d="M416.872,155.544s-40.33,31.969-47.628,72.7c-9.094,50.753,25.7,72.7,25.7,72.7l4.26-25.582s-11.706-16.318-9.744-30.2c2.525-17.857,16.21-30.864,16.21-30.864S423.578,186.974,416.872,155.544Z" transform="translate(-367.728 -64.659)" fill="#14afff" />
                    <path d="M390.614,190.378l8.146-34.494s-32.143,26.856-24.617,82.387l.025-.029c4.193-14.774,14.943-25.019,14.943-25.019s.174-.41.464-1.184Z" transform="translate(-351.169 -63.592)" fill="#0091f4" />
                    <g transform="translate(84.667 0.002)" id="braco_mulher">
                        <path d="M396.412,191.686s-10.332,16.073-7.844,43.128c0,0,77.568-2.993,125.623-80.764l-12.17-11.239S444.607,199.547,396.412,191.686Z" transform="translate(-388.181 -104.632)" fill="#14afff" />
                        <path d="M417.168,168.155s.476-8.312,1.681-10.974c0,0,4.04-14.4,4.818-16.578,0,0,3.5-.534,3.535,3.8a45.881,45.881,0,0,1-1.287,9.624s4.707-4.458,6.462-8.233,5.443-11.123,7.877-12.021,2.517,1.8,2.517,1.8-5.667,11.28-6.859,13.71c-1.052,2.132.128,2.02.128,2.02s9.372-11.338,11.056-13.362,3.44-1.859,4.673.195c0,0-4.963,6.085-7.683,10.084-.948,1.4-5.021,5.539-3.386,6.52,0,0,9.045-8.883,10.39-10.564s3.394-1.312,3.9.915l-11.338,12.99s-.621,1.055.207,1.225c.741.153,7.7-3.908,8.328-4.537s2.765-2.426,3.974-.484c0,0,.323.716-1.656,2.434s-11.077,10.158-11.077,10.158a38.109,38.109,0,0,1-14.049,9.359c-8.7,3.216-11.4.683-6.42,2.467l-2.351-4.462Z" transform="translate(-297.181 -133.588)" fill="#ffcda9" />
                        <path d="M434.086,152.223l-12.361-10.908-6.042,6.194,12.169,11.241Z" transform="translate(-301.845 -109.33)" fill="#3bfaff" />
                        <path d="M390.807,154.752s17.5,9.757,28.6,33.591a100.137,100.137,0,0,0-12.215,4.769L396.8,181.161" transform="translate(-379.939 -67.147)" fill="#0091f4" />
                    </g>
                    <path d="M466.45,206.844c0-18.735-16.152-52.517-31.029-52.517H408.068c-22.27,0-33.6,44.482-33.566,51.921.021,6.044,8.448,11.611,8.813,18.565.985,18.706-.6,41.63,1.664,66.781,0,0,7.67,15.548,36.766,12.273,29.1,3.274,31.758-10.895,31.758-10.895,2.285-25.35,3.241-49.967,4.214-68.768C458.75,216.927,466.45,214.688,466.45,206.844Z" transform="translate(-346.464 -68.48)" fill="#3bfaff" />
                    <rect width="20.674" height="6.082" transform="translate(111.945 131.48) rotate(180)" fill="#14afff" />
                    <path d="M398.858,157.293H395.23l.013,1.112-1.529-1.112-11.1,88.333,13.677,3.228,13.677-3.228Z" transform="translate(-321.007 -59.168)" fill="#001f78" />
                    <path d="M376.715,174.429c.662,10.725,1.548,22.353,2.579,34.953l21.6,2.935,51.366-5.332a63.665,63.665,0,0,0,6.689-7.19c.72-9.119,1.333-17.659,1.83-25.714C419.877,187.489,386.571,177.956,376.715,174.429Z" transform="translate(-339.513 -6.464)" fill="#3bd2ff" opacity="0.51" />
                    <path d="M0,0H10a0,0,0,0,1,0,0V10a0,0,0,0,1,0,0H1.019A1.019,1.019,0,0,1,0,8.984V0A0,0,0,0,1,0,0Z" transform="matrix(0.707, -0.707, 0.707, 0.707, 68.206, 96.498)" fill="#003591" />
                    <g transform="translate(41.238)">
                        <g transform="translate(47.885 31.542)">
                            <path d="M389.258,150.965a9.757,9.757,0,1,0,9.757-9.757A9.755,9.755,0,0,0,389.258,150.965Z" transform="translate(-389.258 -141.208)" fill="#ffb59c" />
                            <path d="M390.036,148.522a6.536,6.536,0,1,0,6.536-6.536A6.536,6.536,0,0,0,390.036,148.522Z" transform="translate(-386.815 -138.766)" fill="#ff9f7c" />
                        </g>
                        <g transform="translate(0 31.542)">
                            <path d="M377.69,150.965a9.757,9.757,0,1,0,9.756-9.757A9.755,9.755,0,0,0,377.69,150.965Z" transform="translate(-377.69 -141.208)" fill="#ffb59c" />
                            <path d="M378.467,148.522a6.538,6.538,0,1,0,6.54-6.536A6.54,6.54,0,0,0,378.467,148.522Z" transform="translate(-375.251 -138.766)" fill="#ff9f7c" />
                        </g>
                        <rect width="31.481" height="31.481" transform="translate(18.283 58.225)" fill="#ffb899" />
                        <path d="M408.531,133.588l-4.218,1.842-1.147-1.842L379.559,151.4v32.378c4.827,20.68,26.289,29.212,26.289,29.212s21.459-8.531,26.285-29.212V151.4Z" transform="translate(-371.822 -133.588)" fill="#ffcda9" />
                        <path d="M392.208,157.445l-3.582-14.936-3.581,14.936Z" transform="translate(-354.602 -105.581)" fill="#ff907d" />
                        <path d="M394.2,158.305a10.926,10.926,0,0,0,10.924-10.932H383.27A10.927,10.927,0,0,0,394.2,158.305Z" transform="translate(-360.172 -90.311)" fill="#fff" />
                    </g>
                    <g transform="translate(55.765 78.852)">
                        <path d="M400.714,163.491l-10.291,10.291s-15.531-6.428-6.288-21.144A32.144,32.144,0,0,0,400.714,163.491Z" transform="translate(-381.2 -152.637)" fill="#14afff" />
                        <path d="M385.914,163.491,396.2,173.781s15.531-6.428,6.284-21.144A32.122,32.122,0,0,1,385.914,163.491Z" transform="translate(-366.399 -152.637)" fill="#14afff" />
                    </g>
                    <path d="M2.078,0H113.757a2.078,2.078,0,0,1,2.078,2.078V78.021a0,0,0,0,1,0,0H0a0,0,0,0,1,0,0V2.078A2.078,2.078,0,0,1,2.078,0Z" transform="translate(17.362 153.99)" fill="#fff" />
                    <path d="M429.625,213.68s-22.419-23.069-57.7-33.467V191Z" transform="translate(-354.56 12.787)" fill="url(#b)" />
                    <path d="M385.966,213.68s22.419-23.069,57.7-33.467V191Z" transform="translate(-310.47 12.787)" fill="url(#c)" />
                </g>
                <g transform="translate(0 193)">
                    <g transform="translate(50.962)">
                        <path d="M366.613,242.6v15.03s82.623-8.9,142.346-22.266c0,0,27.188-8.386,61.143-27.312,0,0-3.9-28.388-37.3-27.833S447.882,213.1,447.882,213.1Z" transform="translate(-366.611 -180.213)" fill="#002a88" />
                        <path d="M446.723,205.057l-2.116-.387-60.98-11.133-17.015,7.237V215.8" transform="translate(-366.612 -138.384)" fill="#001f5f" />
                        <path d="M401,214.251l18.172-16.144,42.971-11.168S440.089,206.568,401,214.251Z" transform="translate(-258.653 -159.098)" fill="#001f5f" />
                    </g>
                    <path d="M564.624,242.6v15.03s-82.627-8.9-142.346-22.266A309.324,309.324,0,0,1,354.3,208.054s3.9-28.388,37.3-27.833S483.351,213.1,483.351,213.1Z" transform="translate(-354.301 -180.213)" fill="#003591" />
                    <path d="M422.278,214.251,404.1,198.107l-49.8-11.168A203.628,203.628,0,0,0,422.278,214.251Z" transform="translate(-354.301 -159.098)" fill="#001f5f" />
                </g>
                <path d="M405.265,214.092s-14.848,2.653-50.964,4.661V206.38l38.9-12.3,12.066,4.98Z" transform="translate(-354.301 56.328)" fill="#000f1f" />
                <path d="M405.111,214.092s14.848,2.653,50.964,4.661V206.38l-38.9-12.3-12.062,4.98Z" transform="translate(-194.787 56.328)" fill="#000f1f" />
            </g>
            <path d="M426.938,143.262s-7.517,20.387-32.842,15.9c0,0,.778,6.048-8.084,8.552V162.32l-8.064-5.58-.8-2.629,5.344-17.067,17.377-3.456,13.747,2.417H435.8l9.024,7.948L440.8,162.531v5.178s-6.722-1.987-6.031-10.278C434.765,157.431,426.71,150.518,426.938,143.262Z" transform="translate(71.729 62.267)" fill="#131637" />
            <path d="M377.062,163.663s-.124-48.8,50.252-27.7c0,0,22.6-4.851,22.6,24.245v3.452l-1.064,4.21-15.635-9.9-11.553-8.353-11.735,1.238Z" transform="translate(71.456 53.113)" fill="#131637" />
            <path d="M419.52,113.754H546.5a36.021,36.021,0,0,1,36.021,36.021h0A36.021,36.021,0,0,1,546.5,185.8H439.376l-24.261,21.277V185.358a22.412,22.412,0,0,1-18.01-21.972V136.169A22.415,22.415,0,0,1,419.52,113.754Z" transform="translate(134.379)" fill="#008eff" />
            <path d="M424.806,131.115a11.193,11.193,0,1,1-11.193-11.193A11.19,11.19,0,0,1,424.806,131.115Z" transform="translate(151.066 19.364)" fill="#3bfaff" />
            <path d="M434.149,131.115a11.2,11.2,0,1,1-11.2-11.193A11.193,11.193,0,0,1,434.149,131.115Z" transform="translate(180.384 19.364)" fill="#3bfaff" />
            <path d="M443.485,131.115a11.193,11.193,0,1,1-11.193-11.193A11.192,11.192,0,0,1,443.485,131.115Z" transform="translate(209.707 19.364)" fill="#3bfaff" />
        </g>
    </g>
</svg>