<svg xmlns="http://www.w3.org/2000/svg" width="22.41" height="19" viewBox="0 0 22.41 19"><g transform="translate(0 -7)"><path d="M15.077,18.1c-.874,0-1.584.981-1.584,2.191s.709,2.192,1.584,2.192,1.583-.981,1.583-2.192S15.951,18.1,15.077,18.1Zm5.513-5.7A10.829,10.829,0,0,0,19.818,7a13.709,13.709,0,0,0-5.544,2.532,13.188,13.188,0,0,0-3.068-.29,13.2,13.2,0,0,0-3.069.29A13.71,13.71,0,0,0,2.593,7a10.826,10.826,0,0,0-.773,5.391A6.6,6.6,0,0,0,0,17.1C0,25.858,7.261,26,9.094,26l2.111,0,2.111,0c1.833,0,9.094-.14,9.094-8.893A6.6,6.6,0,0,0,20.59,12.391Zm-9.35,12.531h-.068C6.577,24.922,3,24.373,3,19.909a3.777,3.777,0,0,1,1.274-2.886c1.5-1.373,4.026-.646,6.9-.646h.069c2.872,0,5.4-.727,6.9.646a3.777,3.777,0,0,1,1.274,2.886C19.411,24.373,15.833,24.922,11.239,24.922ZM7.333,18.1c-.874,0-1.583.981-1.583,2.191s.709,2.192,1.583,2.192,1.584-.981,1.584-2.192S8.208,18.1,7.333,18.1Z" fill="#fff"/></g></svg>