<svg xmlns="http://www.w3.org/2000/svg" xmlns:xlink="http://www.w3.org/1999/xlink" width="482.205" height="570.444" viewBox="0 0 482.205 570.444">
    <defs>
        <linearGradient id="a" x1="-0.013" y1="6.083" x2="0.41" y2="4.695" gradientUnits="objectBoundingBox">
            <stop offset="0" stop-color="#0042ff" />
            <stop offset="0.182" stop-color="#003ffa" />
            <stop offset="0.371" stop-color="#0038ee" />
            <stop offset="0.563" stop-color="#002dd9" />
            <stop offset="0.758" stop-color="#001dbc" />
            <stop offset="0.952" stop-color="#000897" />
            <stop offset="1" stop-color="#00038d" />
        </linearGradient>
        <linearGradient id="b" x1="0.769" y1="1.071" x2="0.233" y2="-0.104" gradientUnits="objectBoundingBox">
            <stop offset="0" stop-color="#0042ff" />
            <stop offset="1" stop-color="#561ebb" />
        </linearGradient>
        <linearGradient id="c" x1="-165.183" y1="1" x2="-165.183" gradientUnits="objectBoundingBox">
            <stop offset="0" stop-color="#00dfff" />
            <stop offset="0.251" stop-color="#0cf" />
            <stop offset="0.755" stop-color="#009bff" />
            <stop offset="1" stop-color="#0082ff" />
        </linearGradient>
        <style>
        #braco_moco {
            animation: braco 2s ease infinite;
        }
        @keyframes braco{
            100%,
            0% {
                transform: rotate(0) translateX(0);
            }
            50% {
                transform: rotate(7deg) translateX(20px);
            }
        }
        </style>
    </defs>
    <g transform="translate(-345.166 -110.198)">
        <g transform="translate(520.143 110.198)">
            <g transform="translate(211.333 108.193)">
                <path d="M550.872,205.166a30.453,30.453,0,1,1,58.271-17.722,13.663,13.663,0,0,1,11.985,17.16l1.51,0a11.047,11.047,0,0,1-1.052,22.044h-37.71l-12.538,12.538V226.647H554.453a11.037,11.037,0,0,1-3.582-21.481Z" transform="translate(-543.404 -165.718)" fill="#003591" />
                <path d="M554.7,187.033a15.854,15.854,0,1,1,28.769,9.171l.006.016L573.35,211.661a3.347,3.347,0,0,1-5.6,0L557.63,196.22l.008-.016A15.759,15.759,0,0,1,554.7,187.033Z" transform="translate(-532.688 -160.536)" fill="#008eff" />
                <path d="M558.823,183.12a7.816,7.816,0,1,0,7.816-7.816A7.817,7.817,0,0,0,558.823,183.12Z" transform="translate(-528.776 -156.624)" fill="#3bfaff" />
            </g>
            <path d="M583.022,151.792a32.137,32.137,0,0,0,1.386-8.413l13.583-10.6H583.01a32.112,32.112,0,0,0-61.43.323,14.408,14.408,0,0,0-12.636,18.1l-1.592,0a11.648,11.648,0,0,0,1.109,23.242h70.781a11.638,11.638,0,0,0,3.779-22.65Z" transform="translate(-376.274 -110.198)" fill="#008eff" />
            <path d="M533.787,117.54a20.71,20.71,0,1,0,0,41.42,20.209,20.209,0,0,0,5.039-.639,2.36,2.36,0,0,0,1.617-1.148,2.327,2.327,0,0,0,.22-1.849,2.133,2.133,0,0,0-.849-1.425,2.633,2.633,0,0,0-2.153-.382,13.851,13.851,0,0,1-3.874.4,15.672,15.672,0,1,1,15.642-15.7,14.743,14.743,0,0,1-1.7,7.089c-.019.037-.043.088-.06.127a4.951,4.951,0,0,1-2.315,2.179h-.3l-.088,0a2.562,2.562,0,0,0-.113-.275h0a1.051,1.051,0,0,0-.039-.5v-8.621c0-6.388-4.948-11.587-11.028-11.587a11.383,11.383,0,0,0-11.141,11.587c0,6.45,5,11.7,11.141,11.7a10.32,10.32,0,0,0,6.086-1.951,6.3,6.3,0,0,0,1.074,2.707,4.936,4.936,0,0,0,4.11,1.978,5.088,5.088,0,0,0,1.436-.156,10.057,10.057,0,0,0,5.587-4.519l.072-.109a1.141,1.141,0,0,0,.125-.195,20.836,20.836,0,0,0-18.49-30.135Zm0,27.175c-3.329,0-5.936-2.853-5.936-6.493,0-3.611,2.662-6.548,5.936-6.548,3.247,0,5.988,3,5.988,6.548A6.264,6.264,0,0,1,533.787,144.715Z" transform="translate(-360.869 -103.232)" fill="#3bfaff" />
            <path d="M442.423,197.065A30.455,30.455,0,1,1,500.7,179.341,13.665,13.665,0,0,1,512.678,196.5l1.512,0a11.047,11.047,0,0,1-1.052,22.044H475.426L462.89,231.082V218.546H446.006a11.037,11.037,0,0,1-3.584-21.481Z" transform="translate(-434.957 -65.21)" fill="#3bfaff" />
            <g transform="translate(14.901 103.973)">
                <circle cx="20.241" cy="20.241" r="20.241" fill="#008eff" />
                <path d="M454.732,189.815,465.39,182.1a3.394,3.394,0,0,0,0-5.5l-10.658-7.715a3.4,3.4,0,0,0-5.386,2.75v15.43A3.4,3.4,0,0,0,454.732,189.815Z" transform="translate(-436.206 -159.11)" fill="#fff" />
            </g>
            <g transform="translate(86.539 72.359)">
                <circle cx="33.009" cy="33.009" r="33.009" transform="translate(0 65.523) rotate(-82.982)" fill="#005fff" />
                <g transform="translate(16.631 23.253)">
                    <path d="M503.711,169.577a1.6,1.6,0,0,1-1.606-1.606,5.5,5.5,0,1,0-10.993,0,1.607,1.607,0,0,1-3.213,0,8.709,8.709,0,1,1,17.418,0A1.6,1.6,0,0,1,503.711,169.577Z" transform="translate(-487.899 -159.262)" fill="#3bfaff" />
                    <g transform="translate(22.911)">
                        <path d="M515.466,169.577a1.6,1.6,0,0,1-1.606-1.606,5.5,5.5,0,1,0-10.993,0,1.606,1.606,0,1,1-3.211,0,8.708,8.708,0,1,1,17.416,0A1.6,1.6,0,0,1,515.466,169.577Z" transform="translate(-499.656 -159.262)" fill="#3bfaff" />
                    </g>
                </g>
                <path d="M506.4,185.513a16.759,16.759,0,0,0,16.759-16.759H489.647A16.759,16.759,0,0,0,506.4,185.513Z" transform="translate(-469.61 -127.003)" fill="#001b8d" />
                <path d="M490.9,175.109h31.006a16.735,16.735,0,0,0,1.255-6.355H489.647A16.7,16.7,0,0,0,490.9,175.109Z" transform="translate(-469.61 -127.003)" fill="#3bfaff" />
            </g>
        </g>
        <g transform="translate(345.166 209.388)">
            <path d="M582.73,402.523c0,8.438-36.776,15.278-82.143,15.278s-82.143-6.84-82.143-15.278,36.776-15.278,82.143-15.278S582.73,394.085,582.73,402.523Z" transform="translate(-275.645 53.453)" fill="#d2eaff" />
            <path d="M546.815,336.741c-14.321-.567-30.18-.937-55.673-13.686-27.672-13.838-37.971,29.946-6.513,44.123,28.664,12.918,56.683-1.651,66.095-12.408C564.844,338.631,551.217,336.915,546.815,336.741Z" transform="translate(-231.22 -9.977)" fill="url(#a)" />
            <g transform="translate(7.098 164.597)">
                <path d="M350.193,256.94v0l4.919-8.4,8.154,3.352,107.64-.166c11.238-.018,24.926,7.992,30.414,17.8L640.153,517.588c.115.2.2.4.3.6l.52-.357,5.071,4.075-4.847,8.284c-1.894,3.241-5.881,5.26-11.5,5.273l-109.2.251c-11.238.027-24.926-7.976-30.418-17.782L351.1,269.749C348.289,264.735,348.16,260.192,350.193,256.94Z" transform="translate(-348.809 -242.741)" fill="#b1d0ff" />
                <g transform="translate(185.87 285.666)">
                    <g transform="translate(0 0.312)">
                        <g transform="translate(1.818 0.023)">
                            <path d="M447.754,393.38a2.36,2.36,0,0,1-1.845,1.023c-.69,0-.98-.452-.651-1.015a2.35,2.35,0,0,1,1.845-1.025C447.791,392.361,448.084,392.817,447.754,393.38Z" transform="translate(-445.122 -392.289)" fill="#82a4e4" />
                            <path d="M449.762,393.372a2.35,2.35,0,0,1-1.845,1.025c-.688,0-.98-.452-.649-1.017a2.354,2.354,0,0,1,1.844-1.023C449.8,392.353,450.091,392.809,449.762,393.372Z" transform="translate(-443.217 -392.295)" fill="#82a4e4" />
                            <path d="M451.771,393.366a2.362,2.362,0,0,1-1.845,1.025c-.69,0-.98-.454-.651-1.017a2.348,2.348,0,0,1,1.845-1.023C451.81,392.347,452.1,392.8,451.771,393.366Z" transform="translate(-441.311 -392.3)" fill="#82a4e4" />
                            <path d="M453.778,393.361a2.355,2.355,0,0,1-1.843,1.025c-.69,0-.98-.454-.651-1.017a2.356,2.356,0,0,1,1.845-1.025C453.817,392.342,454.108,392.8,453.778,393.361Z" transform="translate(-439.405 -392.307)" fill="#82a4e4" />
                            <path d="M455.788,393.353a2.353,2.353,0,0,1-1.845,1.025c-.69,0-.98-.452-.651-1.015a2.356,2.356,0,0,1,1.845-1.025C455.827,392.336,456.118,392.79,455.788,393.353Z" transform="translate(-437.5 -392.313)" fill="#82a4e4" />
                            <path d="M457.8,393.348a2.35,2.35,0,0,1-1.844,1.025c-.69,0-.98-.452-.651-1.017a2.362,2.362,0,0,1,1.845-1.025C457.835,392.329,458.127,392.785,457.8,393.348Z" transform="translate(-435.594 -392.319)" fill="#82a4e4" />
                            <path d="M459.8,393.342a2.356,2.356,0,0,1-1.845,1.025c-.688,0-.98-.454-.649-1.017a2.355,2.355,0,0,1,1.843-1.025C459.844,392.323,460.134,392.779,459.8,393.342Z" transform="translate(-433.689 -392.325)" fill="#82a4e4" />
                        </g>
                        <g transform="translate(0 3.13)">
                            <path d="M446.821,394.974A2.362,2.362,0,0,1,444.976,396c-.69,0-.98-.454-.651-1.017a2.356,2.356,0,0,1,1.845-1.025C446.858,393.955,447.151,394.411,446.821,394.974Z" transform="translate(-444.189 -393.883)" fill="#82a4e4" />
                            <path d="M448.829,394.968a2.354,2.354,0,0,1-1.845,1.023c-.688,0-.98-.452-.649-1.015a2.35,2.35,0,0,1,1.843-1.025C448.868,393.949,449.158,394.4,448.829,394.968Z" transform="translate(-442.284 -393.889)" fill="#82a4e4" />
                            <path d="M450.838,394.96a2.354,2.354,0,0,1-1.845,1.025c-.69,0-.98-.452-.651-1.017a2.357,2.357,0,0,1,1.845-1.023C450.877,393.941,451.168,394.4,450.838,394.96Z" transform="translate(-440.378 -393.894)" fill="#82a4e4" />
                            <path d="M452.846,394.955A2.355,2.355,0,0,1,451,395.98c-.69,0-.982-.454-.651-1.017a2.356,2.356,0,0,1,1.845-1.025C452.885,393.936,453.177,394.392,452.846,394.955Z" transform="translate(-438.473 -393.901)" fill="#82a4e4" />
                            <path d="M454.855,394.949a2.356,2.356,0,0,1-1.845,1.025c-.69,0-.98-.454-.651-1.017a2.353,2.353,0,0,1,1.845-1.025C454.894,393.93,455.185,394.384,454.855,394.949Z" transform="translate(-436.567 -393.907)" fill="#82a4e4" />
                            <path d="M456.863,394.941a2.35,2.35,0,0,1-1.844,1.025c-.69,0-.98-.452-.651-1.017a2.354,2.354,0,0,1,1.845-1.023C456.9,393.924,457.194,394.378,456.863,394.941Z" transform="translate(-434.661 -393.912)" fill="#82a4e4" />
                            <path d="M458.872,394.936a2.356,2.356,0,0,1-1.845,1.025c-.688,0-.98-.454-.651-1.017a2.362,2.362,0,0,1,1.845-1.025C458.911,393.917,459.2,394.373,458.872,394.936Z" transform="translate(-432.756 -393.919)" fill="#82a4e4" />
                        </g>
                        <g transform="translate(27.239)">
                            <path d="M461.732,393.336a2.362,2.362,0,0,1-1.845,1.025c-.69,0-.98-.454-.651-1.017a2.356,2.356,0,0,1,1.845-1.025C461.771,392.317,462.062,392.773,461.732,393.336Z" transform="translate(-457.282 -392.307)" fill="#82a4e4" />
                            <path d="M460.8,394.93a2.359,2.359,0,0,1-1.845,1.025c-.69,0-.98-.454-.651-1.017a2.356,2.356,0,0,1,1.845-1.025C460.838,393.911,461.129,394.367,460.8,394.93Z" transform="translate(-458.167 -390.795)" fill="#82a4e4" />
                            <path d="M463.658,393.33a2.355,2.355,0,0,1-1.843,1.025c-.69,0-.98-.454-.651-1.017a2.356,2.356,0,0,1,1.845-1.025C463.7,392.311,463.989,392.767,463.658,393.33Z" transform="translate(-455.454 -392.313)" fill="#82a4e4" />
                            <path d="M462.724,394.924a2.355,2.355,0,0,1-1.843,1.025c-.69,0-.98-.454-.651-1.017a2.356,2.356,0,0,1,1.845-1.025C462.763,393.905,463.056,394.361,462.724,394.924Z" transform="translate(-456.339 -390.801)" fill="#82a4e4" />
                        </g>
                    </g>
                    <g transform="translate(54.626)">
                        <g transform="translate(1.818 0.023)">
                            <path d="M475.785,393.22a2.355,2.355,0,0,1-1.843,1.025c-.69,0-.982-.454-.651-1.017a2.356,2.356,0,0,1,1.845-1.025C475.824,392.2,476.116,392.657,475.785,393.22Z" transform="translate(-473.154 -392.129)" fill="#82a4e4" />
                            <path d="M477.794,393.214a2.364,2.364,0,0,1-1.845,1.025c-.688,0-.98-.454-.651-1.017a2.357,2.357,0,0,1,1.845-1.025C477.833,392.2,478.124,392.649,477.794,393.214Z" transform="translate(-471.248 -392.135)" fill="#82a4e4" />
                            <path d="M479.8,393.206a2.35,2.35,0,0,1-1.844,1.025c-.69,0-.98-.452-.651-1.017a2.354,2.354,0,0,1,1.845-1.023C479.84,392.187,480.133,392.643,479.8,393.206Z" transform="translate(-469.342 -392.14)" fill="#82a4e4" />
                            <path d="M481.811,393.2a2.356,2.356,0,0,1-1.845,1.025c-.688,0-.98-.454-.651-1.017a2.362,2.362,0,0,1,1.845-1.025C481.85,392.182,482.141,392.638,481.811,393.2Z" transform="translate(-467.437 -392.147)" fill="#82a4e4" />
                            <path d="M483.818,393.2a2.355,2.355,0,0,1-1.843,1.025c-.69,0-.98-.454-.651-1.017a2.35,2.35,0,0,1,1.845-1.025C483.858,392.176,484.15,392.63,483.818,393.2Z" transform="translate(-465.531 -392.153)" fill="#82a4e4" />
                            <path d="M485.828,393.189a2.354,2.354,0,0,1-1.845,1.023c-.688,0-.98-.452-.649-1.015a2.35,2.35,0,0,1,1.844-1.025C485.867,392.17,486.157,392.624,485.828,393.189Z" transform="translate(-463.626 -392.158)" fill="#82a4e4" />
                            <path d="M487.837,393.182a2.359,2.359,0,0,1-1.845,1.025c-.69,0-.98-.452-.651-1.017a2.359,2.359,0,0,1,1.845-1.025C487.876,392.163,488.167,392.619,487.837,393.182Z" transform="translate(-461.72 -392.165)" fill="#82a4e4" />
                        </g>
                        <g transform="translate(0 3.132)">
                            <path d="M474.852,394.814a2.35,2.35,0,0,1-1.845,1.025c-.688,0-.98-.454-.649-1.017A2.361,2.361,0,0,1,474.2,393.8C474.891,393.8,475.183,394.251,474.852,394.814Z" transform="translate(-472.221 -393.725)" fill="#82a4e4" />
                            <path d="M476.861,394.808a2.359,2.359,0,0,1-1.845,1.025c-.69,0-.98-.454-.651-1.017a2.362,2.362,0,0,1,1.845-1.025C476.9,393.789,477.191,394.243,476.861,394.808Z" transform="translate(-470.315 -393.731)" fill="#82a4e4" />
                            <path d="M478.869,394.8a2.361,2.361,0,0,1-1.844,1.025c-.69,0-.98-.454-.651-1.019a2.354,2.354,0,0,1,1.845-1.023C478.908,393.783,479.2,394.237,478.869,394.8Z" transform="translate(-468.409 -393.736)" fill="#82a4e4" />
                            <path d="M480.878,394.794a2.35,2.35,0,0,1-1.845,1.025c-.688,0-.98-.454-.651-1.017a2.36,2.36,0,0,1,1.845-1.023C480.917,393.775,481.208,394.231,480.878,394.794Z" transform="translate(-466.504 -393.742)" fill="#82a4e4" />
                            <path d="M482.887,394.789a2.362,2.362,0,0,1-1.845,1.025c-.69,0-.98-.454-.651-1.017a2.355,2.355,0,0,1,1.845-1.025C482.926,393.77,483.217,394.226,482.887,394.789Z" transform="translate(-464.598 -393.749)" fill="#82a4e4" />
                            <path d="M484.895,394.783a2.361,2.361,0,0,1-1.845,1.025c-.688,0-.98-.454-.649-1.017a2.35,2.35,0,0,1,1.844-1.025C484.934,393.764,485.224,394.218,484.895,394.783Z" transform="translate(-462.693 -393.754)" fill="#82a4e4" />
                            <path d="M486.9,394.775a2.353,2.353,0,0,1-1.845,1.025c-.69,0-.98-.452-.651-1.017a2.357,2.357,0,0,1,1.845-1.023C486.943,393.756,487.234,394.212,486.9,394.775Z" transform="translate(-460.787 -393.76)" fill="#82a4e4" />
                        </g>
                        <g transform="translate(27.24)">
                            <path d="M489.762,393.176a2.355,2.355,0,0,1-1.843,1.025c-.69,0-.98-.454-.651-1.017a2.356,2.356,0,0,1,1.845-1.025C489.8,392.157,490.094,392.613,489.762,393.176Z" transform="translate(-485.314 -392.147)" fill="#82a4e4" />
                            <path d="M488.829,394.77a2.35,2.35,0,0,1-1.843,1.025c-.69,0-.98-.452-.651-1.017a2.361,2.361,0,0,1,1.845-1.025C488.868,393.751,489.161,394.207,488.829,394.77Z" transform="translate(-486.199 -390.635)" fill="#82a4e4" />
                            <path d="M491.69,393.17a2.351,2.351,0,0,1-1.845,1.025c-.688,0-.98-.454-.651-1.017a2.367,2.367,0,0,1,1.846-1.025C491.729,392.151,492.02,392.607,491.69,393.17Z" transform="translate(-483.487 -392.153)" fill="#82a4e4" />
                            <path d="M490.757,394.763a2.351,2.351,0,0,1-1.845,1.025c-.688,0-.98-.452-.649-1.017a2.353,2.353,0,0,1,1.843-1.023C490.8,393.744,491.086,394.2,490.757,394.763Z" transform="translate(-484.372 -390.64)" fill="#82a4e4" />
                        </g>
                    </g>
                </g>
                <path d="M642.855,511.429c5.488,9.806.783,17.852-10.455,17.879l-109.2.249c-11.238.027-24.926-7.974-30.418-17.78L353.8,263.59c-5.492-9.806-.787-17.842,10.451-17.86l109.359-.168c11.238-.019,24.926,7.992,30.414,17.8Z" transform="translate(-346.255 -245.562)" fill="#fff" />
                <path d="M625.976,474.513l-150.015.464L353.575,256.616l150.173-.315Z" transform="translate(-344.287 -235.374)" fill="#d7e8ff" />
                <path d="M494.274,256.331l122.237,218.1-137.762.466L356.922,256.628Z" transform="translate(-341.111 -235.345)" fill="#002ede" />
                <g transform="translate(96.197 79.329)">
                    <path d="M417.68,286.27c-16.172,0-23.813,10.237-17.034,22.818s25.454,22.818,41.629,22.818,23.811-10.235,17.03-22.818S433.85,286.27,417.68,286.27ZM456,308.047h-5.266c-4.135-7.152-11.022-12.916-16.157-16.535C443.639,295.006,451.79,301.071,456,308.047Zm-43.879-18.922c.222-.055.448-.1.676-.152-.123,3.1.314,9.966,5.09,19.074h-6.164C406.479,297.651,411.072,290.526,412.118,289.125Zm8.052-.717c1.005.039,2.015.117,3.034.236a73.063,73.063,0,0,1,16.149,19.4h-8.6Zm7.906,19.639h-7.543a46.574,46.574,0,0,1-3.3-7.809c-1.98-6.337-1.588-10.615-1.43-11.733.548-.053,1.119-.076,1.694-.1Zm-9.04,2.083A82.126,82.126,0,0,0,434.9,329.282c-.446-.074-.891-.156-1.337-.244-10.995-6.9-17.287-13.321-20.693-18.908Zm2.658,0h7.5l10.584,19.639c-.513-.019-1.023-.029-1.539-.07l.023-.01A81.176,81.176,0,0,1,421.694,310.13Zm10.184,0h8.569a39.751,39.751,0,0,1,4.517,19.439q-1.207.149-2.5.2Zm11.231,0h6.183a20.488,20.488,0,0,1-.166,18.569q-.6.184-1.237.341A42,42,0,0,0,443.109,310.13Zm-1.093-2.083a76.691,76.691,0,0,0-15.2-18.832c.411.084.82.181,1.23.277,3.57,2.033,14.61,8.874,20.156,18.556ZM407.8,290.7c-1.4,3.533-2.483,9.636,1.37,17.346h-6.335C399.251,300.5,401.424,294.01,407.8,290.7Zm-3.843,19.429H410.3c3.134,5.254,8.609,11.168,17.7,17.466C417.916,324.329,408.566,317.773,403.955,310.13Zm49.272,16.72a21.842,21.842,0,0,0-1.382-16.72h5.275C460.491,317.231,458.757,323.389,453.227,326.85Z" transform="translate(-398.173 -286.27)" fill="#00daff" />
                    <g transform="translate(43.556 59.6)">
                        <path d="M446.836,326.674c2.923,5.423-.359,9.82-7.331,9.82s-14.992-4.4-17.913-9.82.359-9.82,7.329-9.82S443.913,321.25,446.836,326.674Z" transform="translate(-420.524 -316.854)" fill="#00daff" />
                        <path d="M436.988,328.052h0c-10.4,0-15.346,6.622-10.985,14.715l4.987,9.253a6.482,6.482,0,0,0,5.279,2.894h30.392c2.054,0,3.021-1.3,2.159-2.894l-4.987-9.253C459.473,334.674,447.393,328.052,436.988,328.052Z" transform="translate(-416.83 -306.23)" fill="#00daff" />
                    </g>
                    <g transform="translate(70.594 45.635)">
                        <path d="M444.258,309.688c-8.185,0-12.037,5.162-8.606,11.529,1.775,3.3,5.16,6.259,9.142,8.36.006,1.118-.686,2.485-3.857,2.944,0,0,7.216,2.45,10.17-.514a23.006,23.006,0,0,0,5.575.739c8.185,0,12.037-5.16,8.606-11.529S452.443,309.688,444.258,309.688Z" transform="translate(-434.398 -309.688)" fill="#00daff" />
                    </g>
                    <g transform="translate(25.948 64.359)">
                        <path d="M415.685,319.3c3.482,0,7.491,2.2,8.951,4.9a3.084,3.084,0,0,1-.055,3.56,5.209,5.209,0,0,0,2.991,1.251,5.258,5.258,0,0,1-4.566-.218,6.247,6.247,0,0,1-2.033.314c-3.484,0-7.491-2.2-8.952-4.907S412.2,319.3,415.685,319.3Z" transform="translate(-411.488 -319.296)" fill="#00daff" />
                    </g>
                </g>
                <path d="M442.009,327.406c-1.376,2.354-6.752,1.779-12-1.292s-8.378-7.475-7-9.829,6.752-1.785,12,1.284S443.393,325.043,442.009,327.406Z" transform="translate(-278.722 -179.845)" fill="#0021be" opacity="0.44" />
                <path d="M365.485,254.907c-.629,1.078-3.089.815-5.49-.591s-3.831-3.42-3.2-4.5,3.089-.818,5.49.587S366.118,253.825,365.485,254.907Z" transform="translate(-341.375 -242.154)" fill="#d7e8ff" />
                <path d="M494.274,256.331l12.959,22.729-137.531.465-12.78-22.9Z" transform="translate(-341.111 -235.345)" fill="#0096ff" />
                <path d="M376.163,267.833c-.93,1.586-4.55,1.2-8.085-.869s-5.645-5.037-4.718-6.624,4.55-1.2,8.087.865S377.094,266.24,376.163,267.833Z" transform="translate(-335.212 -232.471)" fill="#3bfaff" />
                <path d="M384.751,267.833c-.928,1.586-4.548,1.2-8.085-.869s-5.645-5.037-4.716-6.624,4.55-1.2,8.085.865S385.683,266.24,384.751,267.833Z" transform="translate(-327.063 -232.471)" fill="#1a2258" />
                <path d="M413.377,357.774l11.812,21.162,137.762-.466-11.767-20.995Z" transform="translate(-287.551 -139.387)" fill="#005fff" />
                <path d="M413.377,357.741,425.189,378.9l91.95-.312L505.294,357.51Z" transform="translate(-287.551 -139.354)" fill="#00daff" />
                <g transform="translate(211.138 247.452)">
                    <path d="M485.884,391.55c-1.984,3.773-9.919,3.124-17.729-1.446s-12.53-11.33-10.547-15.1,9.925-3.132,17.732,1.436S487.87,387.774,485.884,391.55Z" transform="translate(-457.156 -372.543)" fill="#b1d0ff" />
                    <path d="M482.295,388.956c-1.709,2.921-8.378,2.21-14.89-1.6s-10.4-9.276-8.687-12.2,8.382-2.218,14.892,1.592S484.012,386.025,482.295,388.956Z" transform="translate(-456.057 -371.775)" fill="#fff" />
                </g>
                <g transform="translate(59.47 7.428)">
                    <path d="M411.468,256.742c-.875,1.5-4.026,1.284-7.033-.477s-4.735-4.4-3.86-5.9,4.022-1.282,7.033.479S412.341,255.25,411.468,256.742Z" transform="translate(-359.383 -249.374)" fill="#7eacd4" />
                    <path d="M409.509,255.42c-.62,1.056-2.976.834-5.263-.5s-3.642-3.287-3.024-4.344,2.978-.83,5.267.509S410.126,254.363,409.509,255.42Z" transform="translate(-358.696 -248.869)" fill="#000f25" />
                    <path d="M380.4,250.1a.964.964,0,0,1,.185-.031l.082-.006.051,0,31.39.372a1.559,1.559,0,0,1,.16.014,6.694,6.694,0,0,1,2.952.98c1.91,1.119,3.046,2.728,2.537,3.6a1.14,1.14,0,0,1-.783.481.909.909,0,0,1-.3.051c-.029,0-.062,0-.092,0l-31.308-.288c-.043,0-.1-.01-.146-.014a6.621,6.621,0,0,1-3.135-.994c-1.949-1.14-3.075-2.783-2.52-3.662A1.273,1.273,0,0,1,380.4,250.1Z" transform="translate(-379.326 -248.725)" fill="#b1d0ff" />
                    <path d="M405.992,253.2c-.271.462-1.3.362-2.294-.222s-1.588-1.428-1.317-1.892,1.3-.362,2.3.222S406.263,252.743,405.992,253.2Z" transform="translate(-357.516 -248.02)" fill="#000004" />
                    <path d="M406.554,253.224c-.251.433-1.212.339-2.144-.207s-1.485-1.337-1.232-1.769,1.212-.339,2.146.209S406.808,252.793,406.554,253.224Z" transform="translate(-356.755 -247.853)" fill="#fff" opacity="0.2" />
                    <path d="M403.866,251.9c-.14.242-.678.191-1.2-.115s-.83-.748-.688-.99.678-.189,1.2.117S404.009,251.661,403.866,251.9Z" transform="translate(-357.869 -248.168)" fill="#fff" opacity="0.2" />
                </g>
            </g>
            <g transform="translate(91.843)">
                <g transform="translate(92.667 60.888)">
                    <path d="M443.844,225.566s-5.014,7.8-3.808,20.925c0,0,37.64-1.45,60.956-39.187l-5.9-5.454S467.229,229.38,443.844,225.566Z" transform="translate(-439.849 -183.323)" fill="#14afff" />
                    <path d="M469.726,209.116s.23-4.034.815-5.326c0,0,1.96-6.984,2.338-8.042,0,0,1.7-.259,1.715,1.843a22.215,22.215,0,0,1-.624,4.671,17.257,17.257,0,0,0,3.135-4c.854-1.83,2.641-5.4,3.821-5.833s1.222.873,1.222.873-2.75,5.474-3.328,6.653c-.509,1.035.062.98.062.98s4.548-5.5,5.365-6.483,1.67-.9,2.268.1c0,0-2.409,2.95-3.728,4.893-.46.676-2.436,2.685-1.645,3.163,0,0,4.389-4.311,5.041-5.125a1.015,1.015,0,0,1,1.9.442l-5.5,6.3s-.3.513.1.6a19.723,19.723,0,0,0,4.042-2.2c.306-.3,1.341-1.177,1.927-.236,0,0,.156.349-.8,1.183s-5.375,4.928-5.375,4.928a18.5,18.5,0,0,1-6.817,4.541c-4.221,1.561-5.533.331-3.116,1.2l-1.14-2.167Z" transform="translate(-411.504 -192.343)" fill="#ffcda9" />
                    <path d="M477.125,205.6l-6-5.293-2.932,3.006,5.905,5.454Z" transform="translate(-412.956 -184.787)" fill="#3bfaff" />
                    <path d="M442.555,214.157s8.491,4.733,13.879,16.3a48.961,48.961,0,0,0-5.928,2.313l-5.039-5.8" transform="translate(-437.282 -171.647)" fill="#0091f4" />
                </g>
                <path d="M397.443,283.632l-5.147.117.483,21.36,5-15.151a4.072,4.072,0,0,0,.181-1.73Z" transform="translate(-392.296 -44.847)" fill="#000f1f" />
                <path d="M439.564,250.7l10.159,44.98s-25.511,2.218-55.377,19.249l1.787,5.953,80.019-14.769V289.2L468.8,269.848" transform="translate(-390.351 -76.094)" fill="#00217a" />
                <path d="M417.55,251.429s17.788,32.709,42.126,55.367c0,0-18.614,24.8-19.694,58.914l4.677,2.448L476.029,307.2l-15.112-57.281Z" transform="translate(-368.337 -76.828)" fill="#003591" />
                <g transform="translate(54.268 65.83)">
                    <path d="M467.3,272.372s-6.32-14.489-3.02-26.9c2.149-1.5,4.9-3.212,5.889-4.619a62.269,62.269,0,0,0-1.7-13.386c-1.892-7.321-3.574-12.109-5.256-11.948-6.951-2.718-9.523-5.922-19.279-3.6-9.925,2.36-18.447,22.535-23.794,49.273C436.188,276.262,467.3,272.372,467.3,272.372Z" transform="translate(-420.144 -179.475)" fill="#3bfaff" />
                    <g transform="translate(24.735)">
                        <path d="M438.826,224.219l-5.988,4.934.031-20.9s.263-12.33,13.633-13.31c10.851-.8,15.806,6.472,16.009,14.276.47,18.078-9.5,23.231-9.5,23.231l-1.124-1.294-3.21-.91-4.059-8.249-.6,4.862" transform="translate(-432.837 -194.879)" fill="#131637" />
                        <path d="M446.625,201.6c.01.082,2.151,3.962,2.315,7.011h-3.28Z" transform="translate(-420.672 -188.503)" fill="#ff907d" />
                        <path d="M448.453,220.712l8.91-.2c.263-2.683.425-3.182.6-4.472a4.382,4.382,0,0,1-4.4-2.372h4.728c1.128-10.632-.331-13.222-.331-13.222l-.585-1.29c-3.219,6.476-11.484,2.845-11.484,2.845a4.271,4.271,0,0,1-4.186,4.823c1.158,9.808-5.318,12.232-5.318,12.232l-2.754,5.018,9.73,7.795,5.316-.818-.226-1.126v-9.212Z" transform="translate(-432.082 -190.823)" fill="#ffcda9" />
                        <path d="M436.387,211.252a1.377,1.377,0,1,1-1.378-1.378A1.376,1.376,0,0,1,436.387,211.252Z" transform="translate(-432.082 -180.653)" fill="#131637" />
                    </g>
                    <path d="M437,216.988l4,3.017a2.51,2.51,0,0,0,3.833-1.05l1.635-3.977-4.235-.253Z" transform="translate(-404.156 -176.052)" fill="#003c9a" />
                    <path d="M446.634,219l-5.176,5.176s-9.1-4.235-9.1-11.408l2.358-2.551S439.531,216.8,446.634,219Z" transform="translate(-408.56 -180.328)" fill="#14afff" />
                    <path d="M439.682,216.385l4.913,3.773a10.258,10.258,0,0,0-1.849-7.185Z" transform="translate(-401.608 -177.713)" fill="#14afff" />
                </g>
                <path d="M435.39,285.567s-41.292-5.71-34.841-39.713c5.1-26.9,38.834-20.345,55.276-33.81,11.554-9.463,11.669-18.3,25.411-17.051-12.4,7.678-10.168,24.874-10.168,24.874l-7.89,11.26s0,7.015-10.016,13.9C446.042,249.919,435.39,285.567,435.39,285.567Z" transform="translate(-385.115 -129.055)" fill="#131637" />
                <path d="M465.622,265.682l-43.649,4.824-1.829-8.565" transform="translate(-365.876 -65.426)" fill="#001f5f" opacity="0.3" />
                <rect width="70.972" height="70.972" rx="5.365" transform="translate(47.919 128.806)" fill="#fff" />
                <path d="M475.39,250.921a15.211,15.211,0,0,0-27.1-9.547,15.214,15.214,0,1,0-21.159,21.557l-.02.049.384.251c.349.253.707.481,1.078.705l19.717,12.912,19.717-12.912c.37-.224.731-.452,1.078-.705l.386-.251-.021-.049A15.188,15.188,0,0,0,475.39,250.921Z" transform="translate(-364.884 -90.368)" fill="#1a2258" />
                <path d="M443.317,197.988a11.328,11.328,0,0,0-20.181-7.111,11.33,11.33,0,1,0-15.757,16.054l-.014.037.285.187c.259.189.528.359.8.526l14.684,9.615,14.684-9.615c.275-.168.544-.337.8-.526l.286-.187-.016-.037A11.308,11.308,0,0,0,443.317,197.988Z" transform="translate(-382.184 -136.888)" fill="#008eff" />
                <path d="M431.313,179.189a6.8,6.8,0,0,0-12.107-4.266,6.8,6.8,0,1,0-9.453,9.631l-.008.021.171.113c.156.113.316.214.481.316l8.808,5.766L428.014,185c.166-.1.325-.2.481-.316l.172-.113-.008-.021A6.784,6.784,0,0,0,431.313,179.189Z" transform="translate(-378.253 -150.408)" fill="#3bfaff" />
                <path d="M426.115,165.95a4.834,4.834,0,0,0-8.611-3.034,4.834,4.834,0,1,0-6.723,6.85l-.006.016.121.08c.111.08.226.154.343.224l6.265,4.1,6.265-4.1c.117-.07.232-.144.343-.224l.121-.08-.006-.016A4.826,4.826,0,0,0,426.115,165.95Z" transform="translate(-376.551 -161.098)" fill="#131637" />
                <path d="M439.74,217.808s-1.347,16.7,10.254,18.525c17.552,2.754,17.919,14.647,17.919,14.647l4.049,1.83,3.013-7.848s2.3-10.018-14.744-13.479c-9.825-2-19.781-2.442-19.347-13.916" transform="translate(-347.33 -107.525)" fill="#00237b" />
                <path d="M430.57,308.69l-2.844,4.292,17.811,11.8-9.23-12.292Z" transform="translate(-358.682 -21.074)" fill="#000f1f" />
                <g transform="translate(59.915 90.61)">
                    <path d="M445.725,236.048s-9.976,25.049,1.124,59.871l-11.1,1.927S408.362,260.411,434,216.66C434,216.66,448.319,219.341,445.725,236.048Z" transform="translate(-423.042 -198.995)" fill="#d2eaff" />
                    <path d="M445.725,236.048s-18.244,25.049,1.124,59.871l-11.1,1.927S408.362,260.411,434,216.66C434,216.66,448.319,219.341,445.725,236.048Z" transform="translate(-423.042 -198.995)" fill="#14afff" />
                    <path d="M448.718,207.6s5.168,20.456-21.635,23.494c-7.438-13.2,4.482-20.39,4.482-20.39Z" transform="translate(-421.526 -207.595)" fill="#131637" />
                    <path d="M438.773,257.6l1.744,5.129,4.09.867,5.714.953a4.762,4.762,0,0,1-1.787,1.787,6.707,6.707,0,0,1-2.863.388l.871,2.566,4.876.031-7.051,3.412-5.665,1.783-4.954-2.711-.933-6.349-1.522-1.871Z" transform="translate(-415.213 -160.154)" fill="#ffcda9" />
                    <path d="M432.684,266.809l9.2-5.47-2.931-5.716-9.391,5.257Z" transform="translate(-416.855 -162.03)" fill="#3bfaff" />
                </g>
            </g>
            <g transform="translate(218.833 91.699)">
                <path d="M612.275,251.669c-30.065,31.53-68.7,60.163-118.978,69.256-24.685,4.463-35.652,16.233-35.833,29.739-.154,11.507,6.69,25.063,30.854,39.234,59.048,34.627,125.02,22.157,159.33,7.084,43.055-18.914,80.671-62.942,70.6-111.528C706.5,228.732,645.966,216.334,612.275,251.669Z" transform="translate(-457.462 -185.65)" fill="url(#b)" />
                <g transform="translate(132.118)">
                    <path d="M624.022,255.8A36.785,36.785,0,1,0,553.636,234.4a16.506,16.506,0,0,0-14.477,20.73l-1.824,0a13.344,13.344,0,0,0,1.271,26.627h45.552L599.3,296.9V281.751h20.393a13.333,13.333,0,0,0,4.328-25.949Z" transform="translate(-525.259 -208.154)" fill="#008eff" />
                    <g transform="translate(31.701 10.32)">
                        <circle cx="26.555" cy="26.555" r="26.555" transform="translate(0 52.423) rotate(-80.783)" fill="#3bfaff" />
                        <g transform="translate(5.799 4.073)">
                            <path d="M544.5,232.18l2.851.965,1.259.571.965-1.189-1-3.66,1.278-1.861,2.081-3.093,8.863-1.863,1.744-1.808,1.705-1.269,2.379-.955.553-2.479A26.567,26.567,0,0,0,544.5,232.18Z" transform="translate(-544.502 -215.54)" fill="#00daff" />
                        </g>
                        <g transform="translate(4.045 3.993)">
                            <path d="M581.994,239.712c-.018-.288-.039-.573-.064-.859-.013-.144-.029-.29-.045-.435-.031-.281-.066-.559-.107-.838-.018-.131-.035-.261-.055-.39q-.091-.567-.2-1.124l-.023-.117q-.117-.561-.257-1.113c-.035-.136-.074-.273-.109-.409-.068-.249-.138-.5-.212-.746-.047-.152-.094-.3-.142-.454-.076-.236-.154-.47-.238-.7-.051-.146-.1-.292-.154-.437-.105-.281-.214-.555-.327-.83-.068-.166-.138-.329-.208-.493-.115-.263-.232-.526-.355-.785-.078-.162-.16-.322-.24-.483-.092-.183-.185-.368-.283-.55s-.183-.343-.277-.512-.189-.329-.285-.491-.2-.349-.31-.522c-.09-.146-.185-.29-.279-.437q-.342-.526-.7-1.035c-.076-.107-.15-.214-.228-.32-.142-.193-.288-.382-.436-.571-.082-.107-.164-.212-.249-.318-.154-.193-.31-.382-.47-.569-.076-.09-.154-.177-.23-.267q-.26-.3-.528-.59l-.068-.072a27.043,27.043,0,0,0-2.058-1.98l-.138-.119q-.342-.289-.692-.571l-.117-.092a26.575,26.575,0,0,0-3.307-2.223l-.023-.014c-.29-.166-.587-.325-.885-.479l-.025-.014a26.33,26.33,0,0,0-3.8-1.6h0l-2.36,1.072.347,3.18,1.2-.468,1.144.746,1.686-.279-.158,1.777-1.14,2.516-2.389,1.261s1.173,2.333,2.407,2.073a4.745,4.745,0,0,0,2.257-1.536l.059-1.53,1.682.783,1.029-.518.639,1.232,1.066.382,1.686-.279.676.692,1.641.945.637,1.232-2.225.24-2.72-1.4-5.733.522-2.818,2.109-3.564,3.252,1.838,3.332-.912,3.605s3.767,3.835,7.456,2.985,3.958-.3,3.958-.3l1.157-.622.277,1.308.033,3.406,1.2,2.477-.865,2.383,1.643,4.205-1.105,3.04.37.442a26.633,26.633,0,0,0,3.36-3.958l.006-.008q.362-.523.7-1.064l.022-.033c.218-.349.427-.705.629-1.066l.039-.068q.29-.523.557-1.062c.018-.035.037-.07.055-.105.169-.345.329-.7.485-1.05.023-.051.047-.1.068-.15q.219-.512.417-1.033c.025-.066.053-.131.078-.2.125-.333.238-.672.351-1.011.025-.084.057-.164.082-.247.1-.324.195-.653.286-.98.027-.1.058-.2.086-.3.082-.314.154-.633.224-.953.027-.119.059-.236.082-.355.064-.308.117-.62.171-.932.021-.132.049-.263.07-.4.047-.308.084-.62.121-.93.015-.14.039-.279.052-.419.033-.325.055-.655.076-.986.01-.127.023-.251.029-.378.023-.458.037-.92.037-1.384,0-.419-.014-.834-.033-1.249C582.011,239.971,582,239.841,581.994,239.712Z" transform="translate(-529.074 -214.88)" fill="#001b8d" />
                            <path d="M567.181,215.5a26.385,26.385,0,0,0-12.322,4.108l-.006,0a26.562,26.562,0,0,0-4.919,4.063l-.01.01a26.572,26.572,0,0,0-5.423,8.454l2.851.967,1.259.569.965-1.189-1-3.66,1.278-1.861,2.081-3.093,8.863-1.863,1.744-1.808,1.705-1.269,2.379-.955.553-2.477Z" transform="translate(-542.748 -215.499)" fill="#001b8d" />
                            <path d="M557.064,255.633l2.383-2.019,1.8-5.156,2.75-1.715A8.983,8.983,0,0,0,565,242.51a3.949,3.949,0,0,0,1.263-3.377l-4.5-1.557-1.459-1.892-.8-1.652-4.482-1.107-1.218-1.109-2.376-.107-.894-.647.781-.62-1.017.214-.9.8-.764.692-1.645.117-1.781-.536-.672-3.2.914-1.785-.641-1.61-.22.045v0q-.359,1.2-.61,2.436l-.018.105c-.074.378-.142.76-.2,1.144-.016.109-.027.22-.041.329-.045.318-.088.635-.121.957h0a1.193,1.193,0,0,1,.318.477l1.021,1.606L547,234.119l-1.023,3.071-.462,2.132a6.976,6.976,0,0,0,4.521,5.271l.366,1.742a1.3,1.3,0,0,0,1.173.891l-.177,4.211a3.309,3.309,0,0,0,.045.362h0c.4.392.811.768,1.232,1.132l.1.082a26.7,26.7,0,0,0,2.742,2.056l.021.014q.728.474,1.485.9h0Z" transform="translate(-543.602 -206.359)" fill="#001b8d" />
                        </g>
                    </g>
                </g>
                <g transform="translate(15.169 149.245)">
                    <path d="M541.527,324.395l-1.51,0a13.662,13.662,0,0,0-11.985-17.16,30.453,30.453,0,1,0-58.271,17.722,11.114,11.114,0,0,0-4.515,2.98,102.76,102.76,0,0,0,15.687,11.075,157.538,157.538,0,0,0,19.565,9.693l2.266-2.266h37.71a11.047,11.047,0,0,0,1.052-22.044Z" transform="translate(-465.246 -284.009)" fill="#3bfaff" />
                    <g transform="translate(12.787)">
                        <rect width="48.58" height="28.505" rx="2.411" transform="translate(48.58 51.691) rotate(180)" fill="#005fff" />
                        <path d="M472.677,297.946a5.034,5.034,0,0,1,3.369-1.308H514.5a5.046,5.046,0,0,1,3.58,1.483l-22.613,22.615Z" transform="translate(-470.983 -273.452)" fill="#0023c5" />
                        <path d="M498.13,327.023h-9.695l-13.456-13.456V287.692a2.79,2.79,0,0,1,2.789-2.791H507.91a2.789,2.789,0,0,1,2.789,2.791v26.762Z" transform="translate(-468.799 -284.587)" fill="#e3f9ff" />
                        <path d="M509.9,293.031l-10.484,9.327-2.5-2.7a2.021,2.021,0,0,0-2.8-.263l-8.372,7.444-2.752-2.966a2.021,2.021,0,0,0-2.8-.265l-4.369,3.888,2.913,2.911,2.855-2.537,2.752,2.966a2.02,2.02,0,0,0,2.8.263l8.372-7.442,2.5,2.693a2.02,2.02,0,0,0,2.8.263l9.085-8.079Z" transform="translate(-467.998 -276.874)" fill="#008eff" opacity="0.3" />
                        <g transform="translate(7.824)">
                            <path d="M521.486,286.841a1.948,1.948,0,0,0-2.754,0l-19.7,19.7-2.459-2.457a1.946,1.946,0,0,0-2.754,0l-8.235,8.233-2.709-2.7a1.948,1.948,0,0,0-2.754,0l-4.3,4.3c.85.848,1.795,1.791,2.753,2.752l2.923-2.923,2.707,2.7a1.944,1.944,0,0,0,2.754,0l8.237-8.233,2.459,2.457a1.945,1.945,0,0,0,2.752,0l21.077-21.077A1.948,1.948,0,0,0,521.486,286.841Z" transform="translate(-475.823 -283.288)" fill="#001b8d" />
                            <g transform="translate(37.873)">
                                <path d="M505.51,295.937a1.946,1.946,0,0,1-3.323-1.376l0-5.928H497.2a1.947,1.947,0,0,1,0-3.894h6.932a1.946,1.946,0,0,1,1.947,1.947l0,7.875A1.934,1.934,0,0,1,505.51,295.937Z" transform="translate(-495.258 -284.74)" fill="#001b8d" />
                            </g>
                        </g>
                        <path d="M486.523,287.711h-9.907a.48.48,0,0,1-.479-.479h0a.479.479,0,0,1,.479-.479h9.907a.48.48,0,0,1,.479.479h0A.482.482,0,0,1,486.523,287.711Z" transform="translate(-467.702 -282.831)" fill="#3bfaff" />
                        <path d="M486.523,289.572h-9.907a.48.48,0,0,1-.479-.479h0a.479.479,0,0,1,.479-.479h9.907a.48.48,0,0,1,.479.479h0A.482.482,0,0,1,486.523,289.572Z" transform="translate(-467.702 -281.066)" fill="#3bfaff" />
                        <path d="M486.523,292.715h-9.907a.48.48,0,0,1-.479-.479h0a.48.48,0,0,1,.479-.479h9.907a.482.482,0,0,1,.479.479h0A.482.482,0,0,1,486.523,292.715Z" transform="translate(-467.702 -278.084)" fill="#3bfaff" />
                        <path d="M499.479,292.715H482.963a.482.482,0,0,1-.479-.479h0a.482.482,0,0,1,.479-.479h16.515a.482.482,0,0,1,.479.479h0A.482.482,0,0,1,499.479,292.715Z" transform="translate(-461.679 -278.084)" fill="#3bfaff" />
                        <path d="M490.98,294.627h-8.017a.482.482,0,0,1-.479-.479h0a.482.482,0,0,1,.479-.479h8.017a.48.48,0,0,1,.479.479h0A.48.48,0,0,1,490.98,294.627Z" transform="translate(-461.679 -276.27)" fill="#3bfaff" />
                        <path d="M486.523,294.627h-9.907a.48.48,0,0,1-.479-.479h0a.48.48,0,0,1,.479-.479h9.907a.482.482,0,0,1,.479.479h0A.482.482,0,0,1,486.523,294.627Z" transform="translate(-467.702 -276.27)" fill="#3bfaff" />
                        <path d="M518.427,317.265h0a5.046,5.046,0,0,1-3.58,1.483H476.393a5.044,5.044,0,0,1-4.081-2.089l20.119-12.4a5.886,5.886,0,0,1,6.322.09Z" transform="translate(-471.33 -267.056)" fill="#0089ff" />
                    </g>
                </g>
                <g transform="translate(85.503 64.812)">
                    <rect width="100.126" height="115.544" rx="3.739" transform="translate(0.001)" fill="#3bfaff" opacity="0.5" />
                    <path d="M513.947,282.753a31.533,31.533,0,0,1-6.53-2.561,2.552,2.552,0,0,0-1.565,4.576l0,.008.064.043q.088.061.181.117L509.4,287.1l3.307-2.167q.094-.056.181-.117l.064-.043,0-.008A2.551,2.551,0,0,0,513.947,282.753Z" transform="translate(-498.002 -204.622)" fill="#001b8d" opacity="0.49" />
                    <path d="M519.776,282.753a31.534,31.534,0,0,1-6.53-2.561,2.552,2.552,0,0,0-1.565,4.576l0,.008.064.043q.088.061.181.117l3.307,2.167,3.307-2.167q.094-.056.181-.117l.064-.043,0-.008A2.549,2.549,0,0,0,519.776,282.753Z" transform="translate(-492.472 -204.622)" fill="#001b8d" opacity="0.49" />
                    <rect width="41.52" height="45.149" rx="2.801" transform="translate(6.543 25.993)" fill="#3bfaff" opacity="0.85" />
                    <rect width="41.52" height="1.622" transform="translate(52.871 69.458)" fill="#3bfaff" opacity="0.85" />
                    <rect width="41.52" height="1.622" transform="translate(52.871 74.758)" fill="#3bfaff" opacity="0.85" />
                    <rect width="16.665" height="1.622" transform="translate(31.399 74.758)" fill="#3bfaff" opacity="0.85" />
                    <rect width="16.665" height="1.622" transform="translate(31.399 79.995)" fill="#3bfaff" opacity="0.85" />
                    <rect width="16.665" height="1.622" transform="translate(31.399 85.233)" fill="#3bfaff" opacity="0.85" />
                    <rect width="16.665" height="1.622" transform="translate(31.399 90.47)" fill="#3bfaff" opacity="0.85" />
                    <rect width="16.665" height="1.622" transform="translate(31.399 95.706)" fill="#3bfaff" opacity="0.85" />
                    <rect width="16.665" height="1.622" transform="translate(31.399 100.944)" fill="#3bfaff" opacity="0.85" />
                    <rect width="16.665" height="1.621" transform="translate(31.399 106.181)" fill="#3bfaff" opacity="0.85" />
                    <rect width="16.664" height="1.621" transform="translate(6.543 106.181)" fill="#3bfaff" opacity="0.85" />
                    <rect width="16.664" height="1.622" transform="translate(6.543 101.02)" fill="#3bfaff" opacity="0.85" />
                    <rect width="16.664" height="1.622" transform="translate(6.543 95.859)" fill="#3bfaff" opacity="0.85" />
                    <rect width="16.664" height="1.622" transform="translate(6.543 90.698)" fill="#3bfaff" opacity="0.85" />
                    <rect width="16.664" height="1.622" transform="translate(6.543 85.537)" fill="#3bfaff" opacity="0.85" />
                    <rect width="41.52" height="1.622" transform="translate(52.871 80.058)" fill="#3bfaff" opacity="0.85" />
                    <rect width="41.52" height="1.622" transform="translate(52.871 85.358)" fill="#3bfaff" opacity="0.85" />
                    <rect width="41.52" height="1.622" transform="translate(52.871 90.658)" fill="#3bfaff" opacity="0.85" />
                    <rect width="41.52" height="1.622" transform="translate(52.871 95.958)" fill="#3bfaff" opacity="0.85" />
                    <rect width="41.52" height="1.622" transform="translate(52.871 101.258)" fill="#3bfaff" opacity="0.85" />
                    <rect width="41.52" height="1.622" transform="translate(52.871 106.558)" fill="#3bfaff" opacity="0.85" />
                    <rect width="41.52" height="9.271" transform="translate(53.266 25.993)" fill="#001b8d" opacity="0.49" />
                    <rect width="41.52" height="9.271" transform="translate(53.266 39.941)" fill="#001b8d" opacity="0.49" />
                    <rect width="41.52" height="9.27" transform="translate(53.266 53.889)" fill="#001b8d" opacity="0.49" />
                    <path d="M594.179,241.413H508.624a7.286,7.286,0,0,0-7.286,7.284v6.6H601.464v-6.6A7.284,7.284,0,0,0,594.179,241.413Z" transform="translate(-501.338 -241.412)" fill="#001b8d" />
                    <path d="M506.361,246.395a1.71,1.71,0,1,1-1.709-1.711A1.71,1.71,0,0,1,506.361,246.395Z" transform="translate(-499.817 -238.309)" fill="#3bfaff" />
                    <path d="M509.337,246.395a1.709,1.709,0,1,1-1.709-1.711A1.71,1.71,0,0,1,509.337,246.395Z" transform="translate(-496.992 -238.309)" fill="#008eff" />
                    <g transform="translate(9.337 27.718)">
                        <path d="M539.834,296.606a1.3,1.3,0,0,1-.992-.46l-32.405-38.378a1.3,1.3,0,1,1,1.982-1.672l32.407,38.376a1.3,1.3,0,0,1-.992,2.134Z" transform="translate(-506.13 -255.637)" fill="#3bfaff" />
                        <path d="M507.426,296.606a1.3,1.3,0,0,1-.99-2.134L538.842,256.1a1.3,1.3,0,0,1,1.984,1.672l-32.407,38.378A1.293,1.293,0,0,1,507.426,296.606Z" transform="translate(-506.13 -255.637)" fill="#3bfaff" />
                    </g>
                </g>
                <g transform="translate(135.044 91.92)">
                    <g transform="translate(8.05 11.208)" id="braco_moco">
                        <path d="M606.955,291.283s-39.109,2.389-58.4-20.9l-5.567,8.132S564.578,311.1,612.1,314.526C612.1,314.526,615.249,301.859,606.955,291.283Z" transform="translate(-519.419 -252.242)" fill="#14afff" />
                        <path d="M550.63,286.564a94.714,94.714,0,0,0,23.622,13.744l17.227-5.043-.47-11.326a93,93,0,0,1-28.329-5.92Z" transform="translate(-512.165 -245)" fill="#0091f4" />
                        <path d="M582.393,303.561l2.13-22.453-17.9,18.944A100.744,100.744,0,0,0,582.393,303.561Z" transform="translate(-496.987 -242.069)" fill="#ffb500" />
                        <path d="M556.252,276.984l-5.833-8.742-19.361-7.167s-2.438,3.634,11.316,8.327l-2.387,3.806,2.348,6.895,7.732,2.216,1.267,2.054Z" transform="translate(-530.891 -261.075)" fill="#ffcda9" />
                        <path d="M539.973,276.522l9.267-7.993,4.433,4.648-9.128,8.242Z" transform="translate(-522.276 -254.003)" fill="#3bfaff" />
                    </g>
                    <g transform="translate(0 8.156)">
                        <path d="M557.481,289.256l18.25,33.434-31.123.105-17.644-32.516a1.666,1.666,0,0,1,1.462-2.461l26.528-.058A2.876,2.876,0,0,1,557.481,289.256Z" transform="translate(-526.76 -232.708)" fill="#fff" />
                        <path d="M554.489,289.1l16.214,29.7-26.463.089L528.1,289.162Z" transform="translate(-525.485 -231.431)" fill="#131637" />
                        <g transform="translate(6.226 59.697)">
                            <line x2="21.88" fill="none" stroke="#3bfaff" stroke-linecap="round" stroke-linejoin="round" stroke-width="0.333" />
                            <line x2="7.35" transform="translate(1.154 2.058)" stroke-width="0.333" stroke="#3bfaff" stroke-linecap="round" stroke-linejoin="round" fill="none" />
                            <line x2="3.021" transform="translate(11.881 2.058)" stroke-width="0.333" stroke="#3bfaff" stroke-linecap="round" stroke-linejoin="round" fill="none" />
                            <line x2="3.021" transform="translate(16.354 2.058)" stroke-width="0.333" stroke="#3bfaff" stroke-linecap="round" stroke-linejoin="round" fill="none" />
                            <line x2="21.88" transform="translate(2.308 4.116)" stroke-width="0.333" stroke="#3bfaff" stroke-linecap="round" stroke-linejoin="round" fill="none" />
                            <line x2="21.88" transform="translate(3.462 6.175)" stroke-width="0.333" stroke="#3bfaff" stroke-linecap="round" stroke-linejoin="round" fill="none" />
                            <line x2="8.8" transform="translate(4.616 8.233)" stroke-width="0.333" stroke="#3bfaff" stroke-linecap="round" stroke-linejoin="round" fill="none" />
                            <line x2="3.866" transform="translate(5.77 10.291)" stroke-width="0.333" stroke="#3bfaff" stroke-linecap="round" stroke-linejoin="round" fill="none" />
                            <line x2="3.866" transform="translate(11.915 10.291)" stroke-width="0.333" stroke="#3bfaff" stroke-linecap="round" stroke-linejoin="round" fill="none" />
                            <line x2="3.866" transform="translate(17.864 10.291)" stroke-width="0.333" stroke="#3bfaff" stroke-linecap="round" stroke-linejoin="round" fill="none" />
                            <line x2="3.866" transform="translate(23.813 10.291)" stroke-width="0.333" stroke="#3bfaff" stroke-linecap="round" stroke-linejoin="round" fill="none" />
                            <line x2="21.88" transform="translate(6.924 12.349)" stroke-width="0.333" stroke="#3bfaff" stroke-linecap="round" stroke-linejoin="round" fill="none" />
                            <line x2="10.775" transform="translate(19.184 14.408)" stroke-width="0.333" stroke="#3bfaff" stroke-linecap="round" stroke-linejoin="round" fill="none" />
                            <line x2="21.88" transform="translate(9.232 16.466)" stroke-width="0.333" stroke="#3bfaff" stroke-linecap="round" stroke-linejoin="round" fill="none" />
                            <line x2="21.88" transform="translate(10.386 18.524)" stroke-width="0.333" stroke="#3bfaff" stroke-linecap="round" stroke-linejoin="round" fill="none" />
                            <line x2="21.88" transform="translate(11.54 20.582)" stroke-width="0.333" stroke="#3bfaff" stroke-linecap="round" stroke-linejoin="round" fill="none" />
                            <line x2="21.88" transform="translate(12.694 22.64)" stroke-width="0.333" stroke="#3bfaff" stroke-linecap="round" stroke-linejoin="round" fill="none" />
                            <line x2="21.88" transform="translate(13.849 24.699)" stroke-width="0.333" stroke="#3bfaff" stroke-linecap="round" stroke-linejoin="round" fill="none" />
                            <line x2="5.471" transform="translate(20.728 8.233)" stroke-width="0.333" stroke="#3bfaff" stroke-linecap="round" stroke-linejoin="round" fill="none" />
                        </g>
                        <path d="M634.211,400.685c0,8.781-19.127,15.9-42.722,15.9s-42.722-7.121-42.722-15.9,19.127-15.9,42.722-15.9S634.211,391.9,634.211,400.685Z" transform="translate(-505.882 -140.659)" fill="#d2eaff" />
                        <g transform="translate(11.947)">
                            <path d="M564.985,270.471l-.519,3.417,3.2.348,1.23-2.337Z" transform="translate(-502.935 -249.109)" fill="#fff" />
                            <path d="M573.416,292.562v-5.129s-3.1.571-7.945-1.425v-4.691a6.25,6.25,0,0,0,3.319-1.844l-3.319-1.23.616-2.457-2.68-1.545,4.277-7.3.368-4.3,2.7,1.844,1.228,7.863,1.432-3.071s2.545-1.387,3.482,1.1a3.342,3.342,0,0,1-3.482,4.546l4.184,8.454,9.373.514v8.666Z" transform="translate(-503.94 -256.538)" fill="#ffcda9" />
                            <path d="M589.706,261.616c-11.108.737-15.371-1.67-18.778-2.107-1.056,6.294,1.374,4.133-3.742,8.068l1.218,8.578,1.427-3.907c1.226-.682,4.018-.251,3.619,2.541a3.674,3.674,0,0,1-3.619,3.11l4.184,8.454L580.3,289.8l3.083-2.927c18-11.219,6.318-25.254,6.318-25.254Z" transform="translate(-500.355 -259.509)" fill="#131637" />
                            <path d="M587.018,278.886s-6.957-4.12-18.367,0l-2.658,5.076,21.822-1.13Z" transform="translate(-501.486 -242.862)" fill="#14afff" />
                            <path d="M566.3,281.605a29.019,29.019,0,0,1,20.756-2.315l.47,2.323-13.762.713-7.464-.721Z" transform="translate(-501.196 -241.643)" opacity="0.4" fill="url(#c)" />
                            <path d="M567.683,264.848l-1.6,8.846-2.679-1.546Z" transform="translate(-503.94 -254.444)" fill="#ff7588" />
                            <path d="M601.782,285.513s-12.084-12.612-37.1-2.451L560.535,360.9H607.4S609.649,316.356,601.782,285.513Z" transform="translate(-506.664 -240.919)" fill="#3bfaff" />
                            <path d="M548.282,310.216l-7.388-7.056-.146,3.6-7.857-6.719A17.65,17.65,0,0,0,544.018,315Z" transform="translate(-532.891 -221.052)" fill="#ffcda9" />
                            <path d="M544.082,308.8l-3.995-4.558-4-4.556a2.224,2.224,0,0,0-.384,2.874l2.685,4.548" transform="translate(-530.542 -221.395)" fill="#ffcda9" />
                            <path d="M584.352,281.135s-1.228,23.924-14.715,39.458c-12.363,14.239-23.771,9.091-23.771,9.091l-6.067,6.943s10.5,8.494,33.631-.314c18.445-7.023,20.584-31.3,20.584-31.3S596.941,284.263,584.352,281.135Z" transform="translate(-526.336 -238.992)" fill="#14afff" />
                            <rect width="5.173" height="9.221" transform="translate(15.636 87.287) rotate(41.153)" fill="#3bfaff" />
                            <path d="M582.139,394v1.873a1.388,1.388,0,0,1-1.387,1.389H552.719s3.9-7.2,17.48-7.658A37.745,37.745,0,0,1,582.139,394Z" transform="translate(-514.08 -136.085)" fill="#000f1f" />
                            <path d="M600.427,392.617V395.4a1.7,1.7,0,0,1-1.7,1.7h-3.794a4.985,4.985,0,0,1-1.76-.32l-15.461-5.829s4.143-4.808,13.345-1.748Z" transform="translate(-490.367 -137.432)" fill="#000f1f" />
                            <path d="M607.4,321.078l2.253,74.2a114.6,114.6,0,0,1,3.545,11.433c4.418,16.771,3.706,50.145,3.706,50.145s-4.163,3.909-9.545-.536l-14.362-64.663-9.048-43.548-5.979,42.038s3.685,9.7,2.058,26.388c-1.015,10.408-5.3,42.478-5.3,42.478s-7.9-.567-11.244-4.256l-2.945-77.136V321.078Z" transform="translate(-506.664 -201.097)" fill="#002a88" />
                            <path d="M572.548,342.046l3.686-6.708,14.269-7.869-8.572,8.909,1.823,58.93Z" transform="translate(-495.268 -195.035)" fill="#001f5f" />
                            <path d="M560.535,321.078l47.022,5.349-.162-5.349Z" transform="translate(-506.664 -201.097)" fill="#001f5f" />
                        </g>
                    </g>
                    <path d="M570.319,271.547s-1.728-.491-6.433,1.245a17.3,17.3,0,0,1,10.022-15.506l-3.59-.058s7.637-5.252,17.659,1.686l-1.458-3.59a10.033,10.033,0,0,1,6.318,10.262c-4.86,4.893-11.9,4-11.9,4Z" transform="translate(-491.54 -255.324)" fill="#131637" />
                </g>
            </g>
            <g transform="translate(0 127.436)">
                <circle cx="5.633" cy="5.633" r="5.633" transform="translate(22.009 31.69)" fill="#008eff" />
                <path d="M377.227,242.224a18.434,18.434,0,0,0-24.016.07,2.69,2.69,0,0,0,3.555,4.04c.333-.29,8.241-7.076,17.079.072a2.689,2.689,0,0,0,3.383-4.182Z" transform="translate(-338.4 -215.777)" fill="#008eff" />
                <path d="M397.641,234.879c-27.093-18.84-51.14-.076-51.38.115a2.915,2.915,0,0,0,3.64,4.554c.207-.164,20.849-16.264,44.411.117a2.915,2.915,0,0,0,3.328-4.786Z" transform="translate(-345.166 -226.493)" fill="#008eff" />
                <path d="M387.719,238.079c-20.041-13.935-37.86-.027-38.035.117a2.914,2.914,0,0,0,3.632,4.558c.592-.466,14.674-11.293,31.074.111a2.915,2.915,0,1,0,3.328-4.786Z" transform="translate(-341.917 -221.378)" fill="#008eff" />
            </g>
            <g transform="translate(232.722 124.499)">
                <circle cx="20.372" cy="20.372" r="20.372" transform="translate(0 2.658)" fill="#3bfaff" />
                <g transform="translate(7.927 14.671)">
                    <path d="M478.416,238.882a.992.992,0,0,1-.992-.992,3.392,3.392,0,1,0-6.784,0,.992.992,0,1,1-1.984,0,5.375,5.375,0,1,1,10.749,0A.991.991,0,0,1,478.416,238.882Z" transform="translate(-468.657 -232.514)" fill="#001b8d" />
                    <g transform="translate(14.14)">
                        <path d="M485.67,238.882a.991.991,0,0,1-.99-.992,3.393,3.393,0,1,0-6.785,0,.991.991,0,1,1-1.982,0,5.375,5.375,0,1,1,10.749,0A.992.992,0,0,1,485.67,238.882Z" transform="translate(-475.913 -232.514)" fill="#001b8d" />
                    </g>
                </g>
                <g transform="translate(11.419 24.189)">
                    <path d="M486.454,237.4a1.9,1.9,0,0,0-1.9,1.9,5.152,5.152,0,0,1-10.3,0,1.9,1.9,0,1,0-3.8,0,8.952,8.952,0,1,0,17.9,0A1.9,1.9,0,0,0,486.454,237.4Z" transform="translate(-470.449 -237.398)" fill="#001b8d" />
                </g>
                <path d="M473.161,233.245l.016-.01-2.826-7.575a1.04,1.04,0,0,0-1.947,0l-3.118,8.255.017.006a3.884,3.884,0,0,0,.355,3.473,4.454,4.454,0,0,0,3.572,2.264,4.3,4.3,0,0,0,3.931-6.409Z" transform="translate(-464.153 -224.985)" fill="#009eff" />
            </g>
            <path d="M480.639,370.179h-7.089l-3.418-5.47c-1.005-1.608.006-2.911,2.261-2.911H475.4Z" transform="translate(-226.978 29.311)" fill="#003591" />
            <path d="M486.6,363.992h-8.734l.226-.99a1,1,0,0,0-.068-.6l-1-2.453a3.95,3.95,0,0,0-3.077-1.863c-1.337-.134-2.122.474-1.76,1.364l.871,2.13-.7,3.089a1.36,1.36,0,0,0,.433,1.15l4.049,6.478a6.029,6.029,0,0,0,4.687,2.313h8.15c1.688,0,2.446-.976,1.691-2.181l-3.091-4.946h.509c1.35,0,1.958-.781,1.354-1.746h0A4.553,4.553,0,0,0,486.6,363.992Z" transform="translate(-224.746 25.775)" fill="#3bfaff" />
            <path d="M438.389,364.851a9.232,9.232,0,0,0-7.347-4.441,2.829,2.829,0,0,0-2.929,1.664,8.7,8.7,0,0,0-4.73-1.664c-2.73,0-3.866,1.99-2.539,4.441a8.971,8.971,0,0,0,3.814,3.494v.014l.164.074c.154.072.306.138.46.2l8.415,3.755,4.352-3.755a3.047,3.047,0,0,0,.238-.2l.084-.074-.014-.014C439.077,367.533,439.161,366.278,438.389,364.851Z" transform="translate(-273.894 27.994)" fill="#1a2258" />
            <path d="M449.7,364.851a9.228,9.228,0,0,0-7.345-4.441,2.827,2.827,0,0,0-2.929,1.664,8.705,8.705,0,0,0-4.73-1.664c-2.73,0-3.868,1.99-2.541,4.441a8.994,8.994,0,0,0,3.814,3.494l0,.014.164.074c.152.072.306.138.46.2l8.415,3.755,4.349-3.755a2.716,2.716,0,0,0,.238-.2l.086-.074-.016-.014C450.391,367.533,450.473,366.278,449.7,364.851Z" transform="translate(-263.162 27.994)" fill="#1a2258" />
            <path d="M461.014,364.851a9.229,9.229,0,0,0-7.347-4.441,2.826,2.826,0,0,0-2.927,1.664,8.7,8.7,0,0,0-4.73-1.664c-2.73,0-3.868,1.99-2.541,4.441a8.983,8.983,0,0,0,3.814,3.494l0,.014.164.074c.152.072.3.138.46.2l8.415,3.755,4.35-3.755a2.724,2.724,0,0,0,.238-.2l.086-.074-.016-.014C461.7,367.533,461.786,366.278,461.014,364.851Z" transform="translate(-252.429 27.994)" fill="#1a2258" />
        </g>
    </g>
</svg>