<svg id="Camada_1" data-name="Camada 1" xmlns="http://www.w3.org/2000/svg" xmlns:xlink="http://www.w3.org/1999/xlink" viewBox="0 0 2560 1080"><defs><style>.cls-1,.cls-13{fill:#fff;}.cls-1{opacity:0;}.cls-2{fill:url(#Gradiente_sem_nome_7);}.cls-3{fill:url(#Gradiente_sem_nome_7-2);}.cls-4{fill:url(#Gradiente_sem_nome_7-3);}.cls-5{fill:url(#Gradiente_sem_nome_7-4);}.cls-6{fill:#00c1e1;}.cls-7{fill:#003591;}.cls-8{fill:#3bfaff;}.cls-9{fill:#14afff;}.cls-10,.cls-15{fill:#0091f4;}.cls-11{fill:#131637;}.cls-12{fill:#ff907d;}.cls-14{fill:#ffcda9;}.cls-15{opacity:0.21;isolation:isolate;}.cls-16{fill:#003c9a;}.cls-17{fill:#008af3;}.cls-18{fill:#000f1f;}.cls-19{fill:#c2d4ff;}.cls-20{fill:#e7ecff;}.cls-21{fill:#131e3f;}.cls-22{fill:#0ebfec;}.cls-23{fill:#70faff;}.cls-24{fill:url(#Gradiente_sem_nome_30);}.cls-25{fill:#00237b;}.cls-26{fill:url(#Gradiente_sem_nome_21);}.cls-27{fill:url(#Gradiente_sem_nome_21-2);}.cls-28{opacity:0.1;fill:url(#Gradiente_sem_nome_7-5);}.cls-29{fill:url(#Gradiente_sem_nome_26);}.cls-30{fill:url(#Gradiente_sem_nome_26-2);}.cls-31{opacity:0.03;fill:url(#Gradiente_sem_nome_7-6);}</style><linearGradient id="Gradiente_sem_nome_7" x1="630.66" y1="578.89" x2="639.21" y2="-19.92" gradientUnits="userSpaceOnUse"><stop offset="0" stop-color="#673ab7"/><stop offset="1" stop-color="#40168a"/></linearGradient><linearGradient id="Gradiente_sem_nome_7-2" x1="1112.11" y1="585.77" x2="1120.66" y2="-13.05" xlink:href="#Gradiente_sem_nome_7"/><linearGradient id="Gradiente_sem_nome_7-3" x1="1792.46" y1="595.49" x2="1801.01" y2="-3.33" xlink:href="#Gradiente_sem_nome_7"/><linearGradient id="Gradiente_sem_nome_7-4" x1="1548.83" y1="592" x2="1557.39" y2="-6.81" xlink:href="#Gradiente_sem_nome_7"/><linearGradient id="Gradiente_sem_nome_30" x1="1656.75" y1="346.61" x2="1953.3" y2="273.9" gradientUnits="userSpaceOnUse"><stop offset="0" stop-color="#7a32ec"/><stop offset="1" stop-color="#3da2f6"/></linearGradient><linearGradient id="Gradiente_sem_nome_21" x1="566.1" y1="-9.87" x2="703.44" y2="259.12" gradientUnits="userSpaceOnUse"><stop offset="0" stop-color="#8c21ee"/><stop offset="1" stop-color="#6358ed"/></linearGradient><linearGradient id="Gradiente_sem_nome_21-2" x1="556.68" y1="-5.06" x2="694.02" y2="263.93" xlink:href="#Gradiente_sem_nome_21"/><linearGradient id="Gradiente_sem_nome_7-5" x1="473" y1="140.94" x2="801" y2="140.94" xlink:href="#Gradiente_sem_nome_7"/><linearGradient id="Gradiente_sem_nome_26" x1="821.66" y1="175.71" x2="1175.25" y2="328.27" gradientUnits="userSpaceOnUse"><stop offset="0" stop-color="#527af1"/><stop offset="1" stop-color="#23dbfd"/></linearGradient><linearGradient id="Gradiente_sem_nome_26-2" x1="811.78" y1="198.62" x2="1165.36" y2="351.18" xlink:href="#Gradiente_sem_nome_26"/><linearGradient id="Gradiente_sem_nome_7-6" x1="818.72" y1="399.52" x2="1421.45" y2="399.52" xlink:href="#Gradiente_sem_nome_7"/></defs><title>header_bg</title><rect class="cls-1" width="2560" height="1080"/><path class="cls-2" d="M547,0H473s69.14,274.59,323.12,281.88c3.07-.43,4.72-.76,4.72-.76C550.68,238.24,547,0,547,0Z"/><path class="cls-3" d="M1280,322c-47-129-101-153-252-97-143.08,53.06-218.81,56.74-226.36,57,3.42,0,6.87.07,10.36,0,267-4,333-86,495,172,41.69,66.39,82.52,100.53,120.17,114.63C1344.24,524.21,1324.18,443.25,1280,322Z"/><path class="cls-4" d="M1666.22,418.92c51.51-58.76,141.89-137.27,259.54-141.24C1692.75,157.78,1668.57,363.69,1666.22,418.92Z"/><path class="cls-5" d="M547,0s3.68,238.24,253.84,281.12c0,0-1.65.33-4.72.76,1.83.05,3.67.08,5.52.1,7.55-.24,83.28-3.92,226.36-57,151-56,205-32,252,97,44.18,121.25,64.24,202.21,147.17,246.63C1535.82,609.3,1618,483,1618,483s16.94-28.4,48.22-64.08c2.35-55.23,26.53-261.14,259.54-141.24,78.7-2.66,169.61,28,269.24,120.32,127,117.61,254.79,144.73,365,132.65V0Z"/><path class="cls-6" d="M1668.93,399.57c8.08-26.36,19-51.73,33.85-75.15a43.06,43.06,0,0,0-75.89,13.35,19.36,19.36,0,0,0-17,24.32h-2.14a15.66,15.66,0,0,0,1.49,31.24h53.44Z"/><path class="cls-7" d="M1682.6,378.6h-17.37V349.82H1679a3.62,3.62,0,0,1,3.62,3.62V378.6Z"/><path class="cls-8" d="M1630.27,345.21h21.4l-2.07-3.4a5.57,5.57,0,0,1-.75-2.05l-1.3-8.42a5.61,5.61,0,1,1,11.08-1.72l1.13,7.32,6.45,10.6a5.52,5.52,0,0,1,.7,3.95v22.25a7.94,7.94,0,0,1-7.94,7.94h-20a7.49,7.49,0,0,1-7.49-7.49h0v-17h-1.24a6,6,0,0,1-6-6h0A6,6,0,0,1,1630.27,345.21Z"/><path class="cls-9" d="M1819.72,192.37s-8.78,23.41-15.11,30.48c-9.62-12-12.78-28.16-12.78-28.16l-13.2,2.74s3.07,39.75,28.52,51.55c19.17-7,24.79-31.43,24.79-31.43Z"/><path class="cls-10" d="M1809.37,248l9.54-51.61,2.06-1.45,5.32,11c.14,1,.27,2,.42,3.1a83.16,83.16,0,0,1-.47,22.45C1822.73,237.66,1817.33,244.32,1809.37,248Z"/><path class="cls-11" d="M1858,131.94c-2-9.8-13.84-11.11-21-11a33.11,33.11,0,0,1-1.83,4.29,30.93,30.93,0,0,1-8.53,13.27c-.69.74-1.42,1.4-2.16,2.06l13.16,18.32,10,8.26,6.93-3.82C1870.91,142.75,1858,131.94,1858,131.94Z"/><path class="cls-12" d="M1822.81,145.34s-4.63,3.42-5.5,12.06h9.4Z"/><path class="cls-13" d="M1821,159.8l.7,6s7.7,2.08,8.72-2.35l1-4.44-2.48-1.74"/><path class="cls-14" d="M1849.66,163.33h0a12.57,12.57,0,0,1-5.06-8.44s7.34-1.51,6.1-6.85c-1-4.44-6.62-2.95-8.39.88V154s-2.87-.08-3.38-9.85l-3.36-4.31H1824s-4.27,9.75-3,19.94h7.87s-.63,5.16-7.16,6a35.93,35.93,0,0,0,2.24,6.93h11.57v8.44l6.64,3,5.72,1.81,4.87-2.22,1.8-6.21V163.33S1852.64,165.6,1849.66,163.33Z"/><path class="cls-8" d="M1860.36,271.86a36.93,36.93,0,0,1,17.88,4.85l-5.87-91-4.67-2a14.63,14.63,0,0,0-5.73-1.16H1833.6a14.68,14.68,0,0,0-14.69,13.8c-1.46,24.31-4.42,73.49-5.25,87.25C1828.58,276.75,1843.66,271.57,1860.36,271.86Z"/><path class="cls-15" d="M1868.92,273a36.44,36.44,0,0,1,9.32,3.71l-5.53-85.66a23.63,23.63,0,0,0-5.91,10.7,33.76,33.76,0,0,0,3.13,25S1873.89,250.62,1868.92,273Z"/><rect class="cls-9" x="1821.16" y="204.38" width="13.56" height="4.64"/><path class="cls-16" d="M1839.7,190.22a3.49,3.49,0,0,0,4.94,0h0l6.29-6.29-8.29-1.3a3,3,0,0,0-1,0l-8.29,1.3Z"/><path class="cls-8" d="M1792.73,192.37l-15.91,3.71,1.53,8.44,16.07-3.37Z"/><path class="cls-9" d="M1842.17,182.59l-10.5,8.2s-1.18-5.73,3.87-11.19C1835.54,179.6,1837.34,182.59,1842.17,182.59Z"/><path class="cls-9" d="M1842.18,182.59s8,.62,12.39-5.06a10.73,10.73,0,0,1,5.46,5.08s-2,7.06-8.43,9.38Z"/><path class="cls-17" d="M1809.83,168.93a5.77,5.77,0,0,1-6.87,4.37l-9.45-2.1A32.22,32.22,0,0,1,1796,160l9.45,2.1A5.77,5.77,0,0,1,1809.83,168.93Z"/><path class="cls-8" d="M1803.88,158.73l-16.27-7.16-6.07,11.07.8,12.6,17.77.4c2.31.52,5-2.85,6.06-7.53S1806.18,159.24,1803.88,158.73Z"/><path class="cls-14" d="M1791.45,176.23s1.34,3.11-.93,7.88c0,0,3.14,11.93-5.2,13.94a95.7,95.7,0,0,1,.9-16.4l1-4.28"/><rect class="cls-18" x="1766.67" y="176.86" width="39.53" height="6.98" rx="1.13" transform="translate(1222.79 1885.1) rotate(-77.47)"/><path class="cls-14" d="M1782.3,183c0-.14,6.07,1.35,6.07,1.35s-2.8,11.68-8.64,13.44l-2.65-.59a51.48,51.48,0,0,1,.08-11l-.47-4.48A10.1,10.1,0,0,1,1783,180Z"/><path class="cls-11" d="M1794.19,150.5l-27.4-12.07-10.22,18.66,1.35,21.24,29.94.68c3.88.86,8.45-4.82,10.2-12.69S1798.07,151.36,1794.19,150.5Z"/><path class="cls-19" d="M1771.51,160.41c-3.1,13.93-11.18,24-18.06,22.45s-9.93-14.05-6.84-28,11.18-24,18.06-22.45S1774.61,146.49,1771.51,160.41Z"/><path class="cls-20" d="M1770,160.08c-3.1,13.93-11.18,24-18.06,22.45s-9.94-14.06-6.85-28,11.19-24,18.06-22.45S1773.11,146.15,1770,160.08Z"/><path class="cls-11" d="M1768.52,159.75c-2.72,12.25-9.84,21.1-15.89,19.75s-8.74-12.37-6-24.62,9.84-21.1,15.89-19.76S1771.24,147.49,1768.52,159.75Z"/><path class="cls-21" d="M1757.94,135.89a6.71,6.71,0,0,1,4.56-.77c6,1.35,8.74,12.37,6,24.63C1770.57,150.51,1766.08,141.2,1757.94,135.89Z"/><path class="cls-21" d="M1768.52,159.75c-2.72,12.25-9.84,21.1-15.89,19.75a6.62,6.62,0,0,1-3.8-2.62C1758.45,175.52,1766.46,169,1768.52,159.75Z"/><path class="cls-8" d="M1768,151.75a7.57,7.57,0,1,0-3.28,14.78h0l1.6.36a43.36,43.36,0,0,0,3.21-14.81Z"/><path class="cls-22" d="M1769.49,152.21l-3.08-.69c2.16,3.17,3.84,8.67-3,14.86l2.77.61a42.69,42.69,0,0,0,2.32-7.24c.3-1.33.5-2.64.67-3.92S1769.44,153.39,1769.49,152.21Z"/><path class="cls-9" d="M1869.93,221.05s12.81,32.58,2.69,55.83l11.24,2.45s16.87-25.38,9.05-57.62c-7.1-29.3-20.54-36-20.54-36a18.92,18.92,0,0,0-9.54,14.5A26.63,26.63,0,0,0,1869.93,221.05Z"/><path class="cls-11" d="M1821.64,134.14,1862,149.8a18.72,18.72,0,0,0-.73-13.24l-26.56-10.12C1833.26,130.28,1824.45,131.11,1821.64,134.14Z"/><path class="cls-17" d="M1824.8,133.68l-7.24-1.64,2.17-7.83a4.43,4.43,0,0,1,5.24-3.14l3.13.71Z"/><path class="cls-8" d="M1864.18,143.78l-42.54-9.64-15.05-3.41a.69.69,0,0,1-.52-.82l0-.09a.69.69,0,0,1,.83-.52l57.59,13a.67.67,0,0,1,.51.82h0l0,.09A.69.69,0,0,1,1864.18,143.78Z"/><path class="cls-9" d="M1864.42,142.32a21.93,21.93,0,1,0-42.78-9.69Z"/><path class="cls-23" d="M1853.67,139.85l.76-3.81a7.67,7.67,0,0,0-5.68-8.94l-10.7-2.66a2.91,2.91,0,0,0-3.53,2.13l0,.13-1.68,8.43Z"/><path class="cls-9" d="M1864.88,139.2l-43.24-6.57,42.79,9.69A23.45,23.45,0,0,0,1864.88,139.2Z"/><path class="cls-24" d="M1666.22,418.92c51.51-58.76,141.89-137.27,259.54-141.24C1692.75,157.78,1668.57,363.69,1666.22,418.92Z"/><path class="cls-25" d="M1841.17,191.05c-1.31,6.33-5.12,20.32-14.72,31.77a92,92,0,0,1-30.87,23.78l3.86,10.3,14.79-1.13s11.82-8.72,22.41-27.37c9.21-16.23,7-33,6.16-37.28A3.46,3.46,0,0,1,1841.17,191.05Z"/><path class="cls-15" d="M1842.64,189.84l-1.21-2.22s.92,20-9.14,37.27A92.82,92.82,0,0,1,1816,245.33c-.36,5.9-.7,11.62-1,16.84l10.89-2.74s10.17-10.6,17.44-30.78C1850.61,208.31,1842.64,189.84,1842.64,189.84Z"/><path class="cls-26" d="M798.59,281.51c1.46-.24,2.25-.39,2.25-.39C550.68,238.24,547,0,547,0H511.06S508,222.76,798.59,281.51Z"/><path class="cls-27" d="M796.12,281.88l2.47-.37C508,222.76,511.06,0,511.06,0H473S542.14,274.59,796.12,281.88Z"/><path class="cls-28" d="M796.12,281.88l2.47-.37C547,265,511.06,0,511.06,0H473S542.14,274.59,796.12,281.88Z"/><path class="cls-29" d="M1293,404c42.79,122.73,128.45,161.44,128.45,161.44l-8.84-3.21a147.19,147.19,0,0,0,14.56,6.4c-82.93-44.42-103-125.38-147.17-246.63-47-129-101-153-252-97-143.08,53.06-218.81,56.74-226.36,57,3.42,0,6.87.07,10.36,0,2.26,0,4.49-.07,6.72-.12,0,0,103.76-9.84,224.28-40.88C1175,207,1255,295,1293,404Z"/><path class="cls-30" d="M1307,454c36.37,57.93,72.09,91.3,105.61,108.23l8.84,3.21S1335.79,526.73,1293,404c-38-109-118-197-250-163-120.52,31-224.27,40.88-224.28,40.88C1080.12,276.64,1146.37,198.18,1307,454Z"/><path class="cls-31" d="M1307,454c36.37,57.93,72.09,91.3,105.61,108.23l8.84,3.21S1335.79,526.73,1293,404c-38-109-118-197-250-163-120.52,31-224.27,40.88-224.28,40.88C1080.12,276.64,1146.37,198.18,1307,454Z"/></svg>