<svg xmlns="http://www.w3.org/2000/svg" viewBox="0 0 174.14 104.66"><defs><style>.cls-1{fill:#673ab7;}</style></defs><title>logo_dark_1</title><g id="Camada_2" data-name="Camada 2"><g id="Layer_1" data-name="Layer 1"><path class="cls-1" d="M158.27,14.78Q142.41.14,118.48,0H0V53.84a50.82,50.82,0,0,0,50.82,50.82h67.66q24.95-.08,40.28-15t15.38-38C174.15,37,168.83,24.67,158.27,14.78ZM64.61,95.55h-24V30H11.26V8.9H94.11V30H64.61ZM94.52,78.06H82.63V42.37H94.52ZM148.06,45.6v5.69a6.08,6.08,0,0,1-.43,2.17l-9,21a5.92,5.92,0,0,1-5.47,3.63H106.42a6,6,0,0,1-6-6V42.37a6,6,0,0,1,1.74-4.21L121.8,18.58,125,21.72a4.4,4.4,0,0,1,1.31,3.15,4.75,4.75,0,0,1-.1.94L123.33,39.4h18.78a6,6,0,0,1,5.95,5.94l0,.23Z"/></g></g></svg>