<svg xmlns="http://www.w3.org/2000/svg" width="578.002" height="375.103" viewBox="0 0 578.002 375.103">
    <defs>
    <style>
        #braco_esquerdo {
            animation: abanar 2s ease infinite;
            transform-origin: bottom right;
        }
        @keyframes abanar {
            100%,
            0% {
                transform: rotate(0deg);
            }
            50% {
                transform: rotate(1deg);
            }
        }
    </style>
    </defs>
    <g transform="translate(-206.761 -186.175)">
        <path d="M521.421,329.973a590.921,590.921,0,0,1-74.5,4.738,590.9,590.9,0,0,1-74.5-4.738,587.46,587.46,0,0,1,149,0Z" transform="translate(-165.658 221.566)" fill="rgba(0,0,0,0.34)" />
        <path d="M521.421,329.973a590.921,590.921,0,0,1-74.5,4.738,590.9,590.9,0,0,1-74.5-4.738,587.46,587.46,0,0,1,149,0Z" transform="translate(3.342 226.566)" fill="rgba(0,0,0,0.34)" />
        <g transform="translate(449.97 194.969)">
            <g transform="translate(0 0.074)">
                <rect width="238.01" height="147.084" rx="5" fill="#001b8d" />
                <rect width="218.086" height="129.143" rx="5" transform="translate(9.963 8.97)" fill="#30b8ff" />
                <path d="M445.056,287.253V226.362H433.029v60.891H425.3V242.941H413.275v44.311h-7.727v-64.41H393.52v64.41H385.8v-73.8H373.769v73.8h-7.727V242.941H354.014v44.311h-9.32V204.141h-2.639v85.752H453.915v-2.64Z" transform="translate(-235.008 -166.418)" fill="#001b8d" />
                <rect width="67.833" height="4.109" transform="translate(22.001 29.505)" fill="#3bfaff" />
                <rect width="67.833" height="4.109" transform="translate(22.001 41.24)" fill="#3bfaff" />
                <rect width="33.329" height="4.109" transform="translate(22.001 52.973)" fill="#3bfaff" />
                <g transform="translate(48.099 104.168)">
                    <path d="M337.036,229.762V241.5l-6.073,5.977H319.325V229.762Z" transform="translate(-319.325 -229.762)" fill="#3bfaff" />
                    <path d="M329.886,234.287l-6.073,5.977v-5.977Z" transform="translate(-312.175 -222.552)" fill="#2ad9de" />
                </g>
                <g transform="translate(22.682 104.168)">
                    <rect width="17.71" height="17.712" fill="#001b8d" />
                </g>
                <path d="M430.551,215.884l-10.214,2.564,2.745,2.834-12.379,12-42.269-32.917-21.049,15.787,1.583,2.112L368.4,203.684l42.487,33.087,14.028-13.594,2.748,2.834Z" transform="translate(-226.515 -172.439)" fill="#3bfaff" />
                <g transform="translate(22.001 69.327)">
                    <path d="M333.476,228.433a12.107,12.107,0,1,1-12.106-12.106A12.108,12.108,0,0,1,333.476,228.433Z" transform="translate(-309.262 -216.327)" fill="#001b8d" />
                    <g transform="translate(3.594 3.594)">
                        <path d="M319.162,217.713a8.511,8.511,0,1,0,8.512,8.511A8.511,8.511,0,0,0,319.162,217.713Zm-1.527,1.227a6.368,6.368,0,0,0-1.885,3.109,7.363,7.363,0,0,1-1.922-1.011A7.438,7.438,0,0,1,317.635,218.94Zm-4.339,2.707a8.187,8.187,0,0,0,2.236,1.193,14.212,14.212,0,0,0-.371,2.969h-3.431A7.425,7.425,0,0,1,313.3,221.647Zm-1.566,4.99h3.431a14.2,14.2,0,0,0,.392,3.052,8.229,8.229,0,0,0-2.217,1.159A7.418,7.418,0,0,1,311.729,226.637Zm2.142,4.818a7.432,7.432,0,0,1,1.9-.98,6.307,6.307,0,0,0,1.86,3.034A7.431,7.431,0,0,1,313.872,231.455Zm4.873,1.732c-.884-.267-1.67-1.382-2.173-2.951a10.508,10.508,0,0,1,2.173-.306Zm0-4.085a11.076,11.076,0,0,0-2.4.345,13.666,13.666,0,0,1-.361-2.811h2.757Zm0-3.294h-2.757a13.674,13.674,0,0,1,.342-2.723,11.063,11.063,0,0,0,2.414.35Zm0-3.2a10.43,10.43,0,0,1-2.2-.319c.5-1.613,1.3-2.759,2.2-3.032Zm7.845,3.2h-3.426a14.745,14.745,0,0,0-.373-2.969,8.17,8.17,0,0,0,2.233-1.193A7.388,7.388,0,0,1,326.589,225.81Zm-2.1-4.772a7.384,7.384,0,0,1-1.919,1.011,6.407,6.407,0,0,0-1.885-3.109A7.42,7.42,0,0,1,324.491,221.038Zm-4.917-1.776c.9.272,1.7,1.419,2.2,3.032a10.405,10.405,0,0,1-2.2.319Zm0,4.175a11.086,11.086,0,0,0,2.417-.35,13.661,13.661,0,0,1,.342,2.723h-2.759Zm0,3.2h2.759a13.662,13.662,0,0,1-.36,2.811,11.1,11.1,0,0,0-2.4-.345Zm0,6.551V229.93a10.583,10.583,0,0,1,2.178.306C321.244,231.805,320.461,232.921,319.574,233.188Zm1.113.322a6.314,6.314,0,0,0,1.859-3.034,7.447,7.447,0,0,1,1.906.98A7.461,7.461,0,0,1,320.687,233.509Zm4.3-2.661a8.36,8.36,0,0,0-2.22-1.159,14.519,14.519,0,0,0,.394-3.052h3.426A7.412,7.412,0,0,1,324.989,230.848Z" transform="translate(-310.648 -217.713)" fill="#fff" />
                    </g>
                </g>
                <g transform="translate(51.51 69.502)">
                    <circle cx="11.931" cy="11.931" r="11.931" fill="#001b8d" />
                    <path d="M337.037,224.147h-1.481a5.838,5.838,0,0,0-.48-1.159l1.048-1.048a.74.74,0,0,0,0-1.045l-1.242-1.242a.74.74,0,0,0-1.045,0l-1.048,1.048a5.686,5.686,0,0,0-1.159-.48V218.74a.739.739,0,0,0-.739-.739h-1.758a.739.739,0,0,0-.739.739v1.481a5.623,5.623,0,0,0-1.159.48l-1.045-1.048a.743.743,0,0,0-1.048,0L323.9,220.9a.731.731,0,0,0,0,1.045l1.042,1.048a5.83,5.83,0,0,0-.477,1.159h-1.481a.739.739,0,0,0-.739.739v1.756a.739.739,0,0,0,.739.742h1.481a5.829,5.829,0,0,0,.477,1.159l-1.042,1.048a.731.731,0,0,0,0,1.045l1.24,1.242a.744.744,0,0,0,1.048,0l1.045-1.048a5.769,5.769,0,0,0,1.159.48v1.481a.739.739,0,0,0,.739.739h1.758a.739.739,0,0,0,.739-.739V231.31a5.837,5.837,0,0,0,1.159-.48l1.048,1.048a.74.74,0,0,0,1.045,0l1.242-1.242a.74.74,0,0,0,0-1.045l-1.048-1.048a5.837,5.837,0,0,0,.48-1.159h1.481a.741.741,0,0,0,.739-.742v-1.756A.74.74,0,0,0,337.037,224.147Zm-7.026,4.717a3.1,3.1,0,1,1,3.1-3.1A3.1,3.1,0,0,1,330.011,228.865Z" transform="translate(-318.081 -213.835)" fill="#fff" />
                </g>
                <g transform="translate(84.112 71.342)">
                    <rect width="4.969" height="4.968" fill="#001b8d" />
                    <rect width="4.967" height="4.968" transform="translate(8.069)" fill="#001b8d" />
                    <g transform="translate(0 7.607)">
                        <rect width="4.969" height="4.968" fill="#001b8d" />
                        <rect width="4.967" height="4.968" transform="translate(8.069)" fill="#001b8d" />
                    </g>
                    <g transform="translate(0 15.215)">
                        <rect width="4.969" height="4.968" fill="#001b8d" />
                        <rect width="4.967" height="4.968" transform="translate(8.069)" fill="#001b8d" />
                    </g>
                </g>
            </g>
            <g transform="translate(185.791 59.889)">
                <g transform="translate(1.228)" id="braco_esquerdo">
                    <path d="M454.226,262.806s-21.88,17.562-40.636,11.318-26.032-41.6-26.032-41.6,4.2-7.223,0-9.712c0,0,.84-5.975-3.358-6.473s-20.716,4.481-3.921,17.427c0,0,4.759,63.74,40.872,65.981s35.659-6.859,35.659-6.859Z" transform="translate(-372.892 -206.844)" fill="#14afff" />
                    <path d="M387.559,238.344a17.508,17.508,0,0,0,1.45-3.48l0,0c3.872-1.188,1.852-11.076.148-12.736-1.26-1.229-3.029-.394-3.867.122-.845-1.655-5.418-10.332-7.941-9.536-1.862.589.013,6.507,1.46,10.361-5.428,1.984-10.651,7.173,1.468,16.515a136.133,136.133,0,0,0,2.508,16.31A52.839,52.839,0,0,0,392,253.019,105.2,105.2,0,0,1,387.559,238.344Z" transform="translate(-372.893 -212.659)" fill="#ffcda9" />
                </g>
                <path d="M430.253,259.537l-15.768,20.02,3.447,3.961L438.689,266.9Z" transform="translate(-305.392 -137.965)" fill="#ffcda9" />
                <path d="M408.462,232.314s25.446,2.617,31.167,10.975,26.38,30.8,24.2,47.964-11.88,22.22-11.88,22.22l-12.1-10.56s7.92-6.38,6.6-12.762-18.921-23.32-18.921-23.32l-13.859-27.721Z" transform="translate(-314.989 -181.342)" fill="#14afff" />
                <g transform="translate(0 5.337)">
                    <g transform="translate(0 129.383)">
                        <path d="M521.421,329.973a590.921,590.921,0,0,1-74.5,4.738,590.9,590.9,0,0,1-74.5-4.738,587.46,587.46,0,0,1,149,0Z" transform="translate(-372.419 -168.012)" fill="rgba(0,0,0,0.34)" />
                        <path d="M427.613,322.686l.661,4.038.913,5.49-23.021,5.724a1.444,1.444,0,0,1-1.53-2.238,26.6,26.6,0,0,1,4.388-4.476,72.526,72.526,0,0,1,8.771-6.094Z" transform="translate(-321.526 -172.066)" fill="#000f1f" />
                        <path d="M413.827,322.686l-.259,4.085-.345,5.552-23.716.423a1.447,1.447,0,0,1-.988-2.529,26.36,26.36,0,0,1,5.28-3.377,72.362,72.362,0,0,1,9.912-3.973Z" transform="translate(-347.55 -172.066)" fill="#000f1f" />
                        <path d="M453.232,272.831s-2.917,36.276-10.871,68.558l8.1,75.483-12.71,1.3s-13.123-49.557-16.924-61.2c-4.274-13.071,0-45.394,0-45.394s-11.237,24.787-11.237,36.717,1.328,67.168,1.328,67.168-8.473,2.355-12.71,0-7.529-73.605-7.529-73.605l16.473-77.249A327.244,327.244,0,0,0,453.232,272.831Z" transform="translate(-343.318 -264.607)" fill="#002a88" />
                    </g>
                    <path d="M452.449,326.971c.659-7.64,3.013-58.519-.148-69.922-7.059-25.482-22.207-24.733-22.207-24.733-4.634,10.77-14.349,3.486-14.349,3.486s-17.057,10.337-11.406,38.582c3.644,18.231-3.75,34.925-9.453,44.476A65.629,65.629,0,0,0,452.449,326.971Z" transform="translate(-336.621 -186.68)" fill="#3bfaff" />
                    <path d="M406.294,238.881s-6.123,3.657-6.159,6.917,4.066,8.39,4.066,8.39l6.014-6.893,5.822,8.361s18.721-14.37,6.408-22.259S406.294,238.881,406.294,238.881Z" transform="translate(-328.257 -188.922)" fill="#fff" />
                    <g transform="translate(66.048)">
                        <path d="M398.608,229.3s-4.58,25.446,9.352,25.184,19.105-10.278,18.128-16.294-1.787-17.972-13.732-19.43S398.608,229.3,398.608,229.3Z" transform="translate(-397.887 -208.464)" fill="#ffcda9" />
                        <path d="M437.363,229.914a11.805,11.805,0,0,0-4.354-4.186.119.119,0,0,0,.026-.047,7.868,7.868,0,0,0-.635-3.379,11.145,11.145,0,0,0-2.025-3,12.762,12.762,0,0,1,.005,4.406,11.773,11.773,0,0,0-2.337-3.957,9.633,9.633,0,0,0-2.687-1.725,26.8,26.8,0,0,0-14.23-2.376,21.047,21.047,0,0,1-3.319.252,4.586,4.586,0,0,1-3.034-1.188,9.9,9.9,0,0,0,2.648,4.129,12.581,12.581,0,0,0-8.838,13.535,9.583,9.583,0,0,1,6.872.394c-.376,9.315,16.893,13.735,16.893,13.735,2.557-2.443,6.076-.986,6.076-.986a4.155,4.155,0,0,1,2.054,3.128c3.913-2.824,4.86-17.041,4.86-17.041a4.751,4.751,0,0,1,3.055.207A10.685,10.685,0,0,1,437.363,229.914Z" transform="translate(-396.901 -214.717)" fill="#131637" />
                        <path d="M407.367,231.654a4.6,4.6,0,1,0,3.8-5.283A4.6,4.6,0,0,0,407.367,231.654Z" transform="translate(-382.878 -196.244)" fill="#ffcda9" />
                        <path d="M417.787,227.85l.56,3.447s.073.628.148,1.636c.112,1.325.244,3.307.228,5.332-.016,3.141-.353,6.4-1.561,7.523-2.586,2.4-12.422,2.866-13.8,2.241-.433-.2-.669-1.961-.788-4.279-.06-1.24-.093-2.627-.1-4.027h.008c-.031-4.243.135-8.5.135-8.5Z" transform="translate(-390.583 -193.791)" fill="#ffcda9" />
                        <path d="M418.5,229.81c.112,1.325.244,3.307.228,5.332-3.885,1.795-11.756,5.192-16.151,5.485-.06-1.24-.093-2.627-.1-4.027h.008C402.92,236.509,416.768,233.666,418.5,229.81Z" transform="translate(-390.583 -190.668)" fill="#f9c39c" />
                    </g>
                </g>
            </g>
            <g transform="translate(263.841)">
                <path d="M459.481,189.566H407.634a5.113,5.113,0,0,0-5.119,5.112v37.036a5.113,5.113,0,0,0,5.119,5.112h2.79v12.816l12.816-12.816h36.24a5.113,5.113,0,0,0,5.119-5.112V194.678A5.113,5.113,0,0,0,459.481,189.566Z" transform="translate(-402.515 -189.566)" fill="#008eff" />
                <g transform="translate(7.204 7.295)">
                    <rect width="47.678" height="4.232" fill="#fff" />
                    <rect width="47.678" height="4.232" transform="translate(0 9.48)" fill="#fff" />
                    <rect width="47.678" height="4.232" transform="translate(0 18.959)" fill="#fff" />
                    <rect width="25.635" height="4.232" transform="translate(0 28.438)" fill="#fff" />
                </g>
            </g>
        </g>
        <g transform="translate(397.148 454.923)">
            <g transform="translate(25.194 23.447)">
                <path d="M353.535,307.177H294.293a4.168,4.168,0,0,1-4.168-4.168h0a4.167,4.167,0,0,1,4.168-4.165h59.243a4.168,4.168,0,0,1,4.17,4.165h0A4.168,4.168,0,0,1,353.535,307.177Z" transform="translate(-290.125 -298.845)" fill="#353537" />
                <g transform="translate(27.628 8.331)">
                    <rect width="8.049" height="40.676" transform="translate(2.074 6.542)" fill="#ebe0be" />
                    <rect width="12.321" height="15.841" fill="#f4eed8" />
                </g>
                <g transform="translate(7.84 53.655)">
                    <rect width="48.59" height="5.106" transform="translate(1.655)" fill="#353537" />
                    <g transform="translate(0 5.106)">
                        <path d="M301.924,325.891a4.388,4.388,0,1,1-4.388-4.388A4.39,4.39,0,0,1,301.924,325.891Z" transform="translate(-293.148 -321.503)" fill="#ebe0be" />
                        <path d="M318.552,325.891a4.388,4.388,0,1,1-4.388-4.388A4.39,4.39,0,0,1,318.552,325.891Z" transform="translate(-266.653 -321.503)" fill="#ebe0be" />
                    </g>
                </g>
            </g>
            <path d="M395.711,305.056c-.586-12.319-32.267-15.252-32.267-15.252-1.393,0-14.736.083-25.376.148-10.641-.065-23.986-.148-25.376-.148,0,0-31.678,2.933-32.267,15.252s16.136,76.517,16.136,76.517h13.784s1.175-64.2-2.344-66.541c0,0,17-.28,30.067-1.413,13.065,1.133,30.068,1.413,30.068,1.413-3.519,2.344-2.347,66.541-2.347,66.541h13.786S396.3,317.377,395.711,305.056Z" transform="translate(-280.41 -289.804)" fill="#002a88" />
            <g transform="translate(4.581 91.772)">
                <path d="M305.922,325.191l-.309,3.734-.088,1.11-.316,3.958h-21.7a1.32,1.32,0,0,1-.864-2.321c.311-.257.643-.513,1-.765a28.228,28.228,0,0,1,3.89-2.246,66.59,66.59,0,0,1,9.136-3.47Z" transform="translate(-282.177 -325.191)" fill="#353537" />
                <path d="M305.526,327.059l-.316,3.958h-21.7a1.32,1.32,0,0,1-.864-2.321c.311-.257.643-.513,1-.765A125.529,125.529,0,0,0,305.526,327.059Z" transform="translate(-282.177 -322.215)" fill="#fff" />
            </g>
            <g transform="translate(88.239 91.772)">
                <path d="M314.435,325.191l.309,3.734.088,1.11.316,3.958h21.7a1.319,1.319,0,0,0,.864-2.321c-.309-.257-.643-.513-1-.765a28.071,28.071,0,0,0-3.89-2.246,66.49,66.49,0,0,0-9.134-3.47Z" transform="translate(-314.435 -325.191)" fill="#353537" />
                <path d="M314.588,327.059l.316,3.958h21.7a1.319,1.319,0,0,0,.864-2.321c-.309-.257-.643-.513-1-.765A125.5,125.5,0,0,1,314.588,327.059Z" transform="translate(-314.191 -322.215)" fill="#fff" />
            </g>
        </g>
        <g transform="translate(393.792 326.497)">
            <path d="M354.962,345.36l-.5.231a77.966,77.966,0,0,1-65.218,1.074s1.566-23.161,6.284-50.8a379.575,379.575,0,0,1,8.218-37.552l.028-.01.042-.018c.749-.288,1.507-.563,2.272-.817a48,48,0,0,1,30.106-.044c.827.275,1.644.573,2.466.89C349.944,298.586,354.962,345.36,354.962,345.36Z" transform="translate(-262.97 -216.802)" fill="#3bfaff" />
            <g transform="translate(0 41.497)">
                <path d="M319.925,256.284l-.028.01a379.584,379.584,0,0,0-8.218,37.552c-5.184,3.854-11.688,9.354-12.752,13.491-.591,2.272,1.839,4.17,5.394,5.711l-3.257,11.45h-7.357s-15.436-4.707-14.554-17.451,25.062-40.192,28.512-45.031C309.362,259.637,314.822,257.666,319.925,256.284Z" transform="translate(-279.116 -256.284)" fill="#14afff" />
                <path d="M310.8,289.623v-6.59s-12.482-1.623-19.961-4.863l-3.257,11.452Z" transform="translate(-265.631 -221.41)" fill="#14afff" />
            </g>
            <g transform="translate(71.064 41.497)">
                <path d="M308.2,256.284l.275.01a377.749,377.749,0,0,1,7.972,37.552c5.184,3.854,11.688,9.354,12.752,13.491.589,2.272-1.839,4.17-5.394,5.711l3.257,11.45h7.357s15.436-4.707,14.554-17.451-25.062-40.192-28.512-45.031C318.758,259.637,313.3,257.666,308.2,256.284Z" transform="translate(-303.841 -256.284)" fill="#14afff" />
                <path d="M306.518,289.623v-6.59s12.482-1.623,19.961-4.863l3.257,11.452Z" transform="translate(-306.518 -221.41)" fill="#14afff" />
            </g>
            <rect width="61.164" height="40.096" transform="translate(30.432 69.614)" fill="#353537" />
            <g transform="translate(38.551)">
                <path d="M325.85,257.418c-.677,4.181-3.369,12.329-14.09,12.329-10.693,0-14.678-8.1-16.017-12.285.931-.306,1.875-.589,2.824-.835a47.9,47.9,0,0,1,24.837.062C324.224,256.907,325.041,257.156,325.85,257.418Z" transform="translate(-291.172 -216.801)" fill="#ffcda9" />
                <path d="M321.67,256.689c-2.9,3.122-7.868,7.417-13.333,7.557-6.364.161-10.026-4.935-11.5-7.619A47.9,47.9,0,0,1,321.67,256.689Z" transform="translate(-289.437 -216.801)" fill="#f8bc91" />
                <path d="M326.495,262.159c0,10.8-6.927,19.549-15.472,19.549s-15.475-8.753-15.475-19.549,6.93-19.546,15.475-19.546S326.495,251.366,326.495,262.159Z" transform="translate(-291.484 -236.57)" fill="#ffcda9" />
                <path d="M303.216,254.4a4.617,4.617,0,1,1-4.616-4.616A4.62,4.62,0,0,1,303.216,254.4Z" transform="translate(-293.981 -225.143)" fill="#ffcda9" />
                <path d="M314.936,254.4a4.617,4.617,0,1,1-4.619-4.616A4.619,4.619,0,0,1,314.936,254.4Z" transform="translate(-275.307 -225.143)" fill="#ffcda9" />
                <path d="M330.225,265.252c-.2,1.468-2.7,1.577-2.342,3.014A10.139,10.139,0,0,0,325.8,264.5a7.839,7.839,0,0,0-6-7.383c-2.43-.521-4.953.169-7.435.044a11.447,11.447,0,0,1-7.734-3.623c-3.444,4.253-6.056,9.6-6.154,15.073a4.961,4.961,0,0,0-2.827-2.962s-3.8-12.6,1.263-15.169c0,0-2.127-6.234,6.232-7.407s22.957,2.713,25.374-2.788c0,0,3.374,8.947,0,11.074C328.516,251.357,332.077,251.276,330.225,265.252Z" transform="translate(-293.506 -240.283)" fill="#3a3835" />
            </g>
        </g>

        <!-- garota -->
        <path d="M274.574,270.031c.28-6.11,4.007-11.893,3.2-17.956-1.455-10.89-17.165-17.762-26.867-14.65a13.757,13.757,0,0,0-7.715,6.784A26.341,26.341,0,0,0,237.1,255.13c-1.017,3.934-.386,7.876-.22,11.87a24.109,24.109,0,0,1-.174,4,16.49,16.49,0,0,1-2.3,3.426c-1.688,1.927-3.9,3.325-5.687,5.153a26.265,26.265,0,0,0-5.078,8.275c-1.815,4.282-3.182,9.113-1.732,13.53,1.437,4.375,5.368,7.466,9.45,9.6a42.315,42.315,0,0,0,25.226,4.393c5.316-.737,10.667-2.609,14.474-6.4,3.732-3.714,5.648-8.965,6.144-14.207s-.322-10.513-1.411-15.667A36.122,36.122,0,0,1,274.574,270.031Zm-36.613-2.09c0-1.828-.1-3.7-.223-5.612a22.589,22.589,0,0,1,3.859-14.453c-.1.3-.192.6-.28.908C239.53,255,239.89,261.937,237.961,267.941Z" transform="translate(22.56 80.462)" fill="#ff6748" />

        <g transform="translate(207.145 356.676)">
            <g transform="translate(0 31.814)">
                <g transform="translate(0 17.722)">
                    <path d="M234.7,358.76c-12.726-1.439-21.17-6.556-25.091-15.21-11.338-25.011,19.995-70.6,21.333-72.529l3.613,2.508c-.311.451-31.253,45.464-20.939,68.206,3.239,7.145,10.5,11.4,21.579,12.653Z" transform="translate(-207.145 -271.021)" fill="#f4eed8" />
                </g>
                <path d="M4.333,0h42a0,0,0,0,1,0,0V46.336a0,0,0,0,1,0,0h-42A4.333,4.333,0,0,1,0,42V4.333A4.333,4.333,0,0,1,4.333,0Z" transform="translate(11.687)" fill="#353537" />
                <path d="M275.063,310.876H215.82a4.166,4.166,0,0,1-4.168-4.168h0a4.165,4.165,0,0,1,4.168-4.165h59.243a4.165,4.165,0,0,1,4.165,4.165h0A4.165,4.165,0,0,1,275.063,310.876Z" transform="translate(-199.965 -203.071)" fill="#353537" />
            </g>
            <g transform="translate(24.509)">
                <g transform="translate(19.774 102.274)">
                    <path d="M226,319.988s30.781,1.408,40.462,0l-9.24,59.144h12.018s25.825-71.113,17.023-79.91-36.52-7.835-36.52-7.835L224.221,304.5Z" transform="translate(-224.221 -291.357)" fill="#002a88" />
                    <g transform="translate(34.979 87.742)">
                        <path d="M237.709,325.19l.306,3.732.4,5.075h21.707a1.323,1.323,0,0,0,.864-2.326,24.336,24.336,0,0,0-4.886-3.006,66.375,66.375,0,0,0-9.134-3.475Z" transform="translate(-237.709 -325.19)" fill="#353537" />
                        <path d="M237.709,325.19l.306,3.732a16.707,16.707,0,0,0,4.515,1.616,35.23,35.23,0,0,0,7.648.56c2.293-.016,4.647-.6,5.923-2.432a66.375,66.375,0,0,0-9.134-3.475Z" transform="translate(-237.709 -325.19)" fill="#f4eed8" />
                    </g>
                </g>
                <path d="M244.163,251.922s6.572,2.767,9.5,15.677,5.28,44,5.28,44l21.688,7.114.311,9.9-44,2.171,1.175-38.252Z" transform="translate(-184.171 -251.917)" fill="#14afff" />
                <g transform="translate(2.711 90.959)">
                    <g transform="translate(113.322 79.973)">
                        <path d="M261.338,320.561l1.387,3.475,1.88,4.73,20.742-6.388a1.323,1.323,0,0,0,.14-2.479,24.312,24.312,0,0,0-5.552-1.434,66.186,66.186,0,0,0-9.751-.63Z" transform="translate(-261.338 -317.831)" fill="#353537" />
                        <path d="M261.338,320.561l1.387,3.475a16.85,16.85,0,0,0,4.793.215,35.534,35.534,0,0,0,7.471-1.714c2.186-.692,4.266-1.942,4.946-4.072a66.186,66.186,0,0,0-9.751-.63Z" transform="translate(-261.338 -317.831)" fill="#f4eed8" />
                    </g>
                    <path d="M219.186,287.477s-7.656,32.487,11.118,38.5,71.909-17.062,71.909-17.062L328.9,370.286l12.907-3.519s-15.254-78.2-25.228-79.29-41.655,0-41.655,0Z" transform="translate(-217.641 -286.994)" fill="#002a88" />
                </g>
                <path d="M276.589,343.357l-4.876.882L257.8,346.762l-41.2,7.464s17.16-47.15,18.26-53.33,1.25-23.154.078-31.434S246.78,251.92,246.78,251.92h29.808c.078.088.158.184.236.283C292.26,270.3,276.589,343.357,276.589,343.357Z" transform="translate(-216.596 -251.92)" fill="#3bfaff" />
                <path d="M249.7,344.239l-13.913,2.523c9.056-60.783-5.368-94.842-5.368-94.842h24.157c.078.088.158.184.236.283C263.713,263.582,251.947,331.715,249.7,344.239Z" transform="translate(-194.579 -251.92)" fill="#3bfaff" />
                <path d="M230.414,251.922s8.652,13.32,18.042,10.384,6.115-10.384,6.115-10.384Z" transform="translate(-194.579 -251.917)" fill="#ffcda9" />
                <g transform="translate(10.381 0.005)">
                    <path d="M293.2,285.415c-2.178-1.924-6.561-7.308-9.99-7.733-1.66-.2-12.171,4-12.171,4s-18.091-.8-34.842-1.968l-.864,10.1c11.784-.174,25.239-.472,36.411-.884,8.3,2.28,16.836.309,20.91-.96A1.5,1.5,0,0,0,293.2,285.415Z" transform="translate(-197.123 -210.889)" fill="#ffcda9" />
                    <path d="M240.4,251.922a29.2,29.2,0,0,0-18.187,22.422c-3.226,17.6-1.465,58.667,3.815,61.6s36.961-1.465,36.961-1.465V320.107l-21.2-1.172S253.9,262.646,240.4,251.922Z" transform="translate(-220.599 -251.922)" fill="#14afff" />
                </g>
            </g>
            <g transform="translate(39.315 139.619)">
                <rect width="8.049" height="40.676" transform="translate(2.073 6.542)" fill="#ebe0be" />
                <rect width="12.321" height="15.841" fill="#f4eed8" />
            </g>
            <g transform="translate(19.527 184.942)">
                <rect width="48.591" height="5.108" transform="translate(1.653)" fill="#353537" />
                <g transform="translate(0 5.108)">
                    <path d="M223.451,329.591a4.388,4.388,0,1,1-4.388-4.388A4.387,4.387,0,0,1,223.451,329.591Z" transform="translate(-214.675 -325.203)" fill="#ebe0be" />
                    <path d="M240.076,329.591a4.387,4.387,0,1,1-4.385-4.388A4.385,4.385,0,0,1,240.076,329.591Z" transform="translate(-188.18 -325.203)" fill="#ebe0be" />
                </g>
            </g>
        </g>




        <g transform="translate(288.52 436.207)">
            <rect width="293.497" height="6.428" fill="#001b8d" />
            <path d="M0,0H277.214V7.213H0Z" transform="translate(8.141 6.428)" fill="#041660" />
        </g>
        <g transform="translate(303.611 449.848)">
            <path d="M249.795,399.174l11.726-111.327h-8.8l-8.375,111.327Z" transform="translate(-244.342 -287.847)" fill="#353537" />
            <path d="M356.432,399.174l-8.378-111.327h-8.8l11.726,111.327Z" transform="translate(-93.114 -287.847)" fill="#353537" />
        </g>
        <g transform="translate(302.689 396.111)">
            <rect width="34.523" height="4.333" transform="translate(0 35.763)" fill="#353537" />
            <path d="M308.093,307.222H252.735l8.806-40.1H316.9Z" transform="translate(-230.047 -267.126)" fill="#353537" />
        </g>
        <g transform="translate(266.119 322.119)">
            <path d="M255.74,248.867s3.366,21.369-8.283,20.9-15.791-8.947-14.863-13.96,1.818-15,11.836-16.006S255.74,248.867,255.74,248.867Z" transform="translate(-225.77 -236.789)" fill="#ffcda9" />
            <path d="M238.368,250.583a3.852,3.852,0,1,1-3.089-4.489A3.853,3.853,0,0,1,238.368,250.583Z" transform="translate(-228.544 -226.749)" fill="#ffcda9" />
            <path d="M233.909,258.45s2.969-1.157,5.065.934c0,0,14.526-3.382,14.38-11.18a8.01,8.01,0,0,1,5.755-.2s-2.565-12.889-19.082-8.488-7.892,21.517-7.892,21.517A3.472,3.472,0,0,1,233.909,258.45Z" transform="translate(-229.886 -238.595)" fill="#ff6748" />
            <path d="M233.41,247.33l-.534,2.874s-.07.524-.156,1.364c-.114,1.11-.262,2.765-.285,4.458-.044,2.627.176,5.361,1.17,6.32,2.119,2.059,10.34,2.624,11.5,2.127.366-.158.6-1.626.739-3.566.07-1.035.124-2.194.158-3.366H246c.1-3.548.039-7.116.039-7.116Z" transform="translate(-225.832 -224.676)" fill="#ffcda9" />
            <path d="M232.717,248.964c-.114,1.11-.262,2.764-.285,4.458,3.216,1.572,9.738,4.557,13.413,4.881.07-1.035.124-2.194.158-3.366H246C245.624,254.848,234.094,252.224,232.717,248.964Z" transform="translate(-225.829 -222.073)" fill="#ffbf91" />
        </g>
        <g transform="translate(293.441 254.975)">
            <path d="M297.387,212.7H245.54a5.112,5.112,0,0,0-5.119,5.112v37.036a5.113,5.113,0,0,0,5.119,5.109h2.79v12.816l12.816-12.816h36.24a5.113,5.113,0,0,0,5.119-5.109V217.816A5.112,5.112,0,0,0,297.387,212.7Z" transform="translate(-240.421 -212.704)" fill="#00c1e1" />
            <path d="M290.4,216.878l-13.511,3.815,3.768,3.67-7.013,7.205-14.036-10.276-16.116,17,2.554,2.422,13.982-14.747,14.005,10.252,9.148-9.4,3.769,3.669Z" transform="translate(-235.524 -206.053)" fill="#fff" />
        </g>
        <g transform="translate(368.224 186.175)">
            <path d="M320.393,211.743a25.568,25.568,0,1,1-25.568-25.568A25.57,25.57,0,0,1,320.393,211.743Z" transform="translate(-269.257 -186.175)" fill="#fff" />
            <g transform="translate(3.524 3.677)">
                <path d="M292.66,231.525a22.724,22.724,0,0,1-2.63-.153l.208-1.751a20.393,20.393,0,0,0,4.886-.005l.213,1.751A22.4,22.4,0,0,1,292.66,231.525Zm-7.793-1.416a21.821,21.821,0,0,1-4.7-2.466l1-1.45a20.108,20.108,0,0,0,4.331,2.269Zm15.628-.016-.628-1.644a20.234,20.234,0,0,0,4.321-2.277l1,1.447A22.029,22.029,0,0,1,300.494,230.093Zm-24.313-5.967a22.223,22.223,0,0,1-3.026-4.362l1.556-.822a20.452,20.452,0,0,0,2.785,4.015Zm32.98-.031-1.315-1.167a20.171,20.171,0,0,0,2.778-4.022l1.559.82A21.957,21.957,0,0,1,309.161,224.095Zm-37.9-9.3a22.177,22.177,0,0,1-.646-5.27l1.761,0a20.415,20.415,0,0,0,.594,4.85Zm42.8-.042-1.709-.42a20.43,20.43,0,0,0,.583-4.852l1.761-.086v.086A22.2,22.2,0,0,1,314.065,214.756ZM272.953,204.67l-1.712-.415a22.048,22.048,0,0,1,1.872-4.971l1.561.814A20.165,20.165,0,0,0,272.953,204.67Zm39.383-.117a20.078,20.078,0,0,0-1.75-4.562l1.556-.825a21.858,21.858,0,0,1,1.9,4.959Zm-34.891-8.483-1.32-1.162a22.235,22.235,0,0,1,3.965-3.535l1.006,1.445A20.54,20.54,0,0,0,277.444,196.071Zm30.348-.091a20.394,20.394,0,0,0-3.667-3.229l1-1.45a22.1,22.1,0,0,1,3.986,3.509Zm-22.381-5.446-.63-1.642a21.977,21.977,0,0,1,5.156-1.281l.215,1.745A20.308,20.308,0,0,0,285.411,190.534Zm14.378-.041a20.319,20.319,0,0,0-4.748-1.151l.2-1.748a21.924,21.924,0,0,1,5.163,1.253Z" transform="translate(-270.616 -187.593)" fill="#5202b5" />
            </g>
            <g transform="translate(23.831 12.065)">
                <path d="M285.776,216.014l-7.329-7.328V190.827h3.52v16.4l6.3,6.3Z" transform="translate(-278.446 -190.827)" fill="#5202b5" />
            </g>
        </g>
    </g>
</svg>