<svg xmlns="http://www.w3.org/2000/svg" xmlns:xlink="http://www.w3.org/1999/xlink" width="1920.691" height="1197.011" viewBox="0 0 1920.691 1197.011"><defs><linearGradient id="a" y1="1" x2="1" y2="0.059" gradientUnits="objectBoundingBox"><stop offset="0" stop-color="#673ab7"/><stop offset="1" stop-color="#561ebb"/></linearGradient><linearGradient id="b" x1="0.463" y1="0.745" x2="-0.275" y2="-0.06" gradientUnits="objectBoundingBox"><stop offset="0" stop-color="#1ee3fe"/><stop offset="1" stop-color="#469df7"/></linearGradient><linearGradient id="c" x1="0.425" y1="0.094" x2="0" y2="1" gradientUnits="objectBoundingBox"><stop offset="0" stop-color="#8c22ee"/><stop offset="1" stop-color="#6d4aed"/></linearGradient><clipPath id="e"><path d="M455.639,1055.325S604.25,854.473,929.6,946.388s291.41-281.245,702.813,14.664,741.21,94.272,741.21,94.272v943.541l-1920.691,3.576" transform="translate(-452.933 -844.733)" fill="url(#a)"/></clipPath></defs><g transform="translate(0.691 -805.431)"><path d="M837.775,953.958c13.642,5.237,124.085,17.568,264.649-110.747s217.539,44.517,502.014,199.019-428.386,0-428.386,0l-338.278-31.424Z" transform="translate(-336.482 7)" fill="url(#b)"/><path d="M872.871,934.866C632.146,890.348,455,974.146,455,974.146v81.067S609.856,869.127,872.871,941.825,872.871,934.866,872.871,934.866Z" transform="translate(-453.624)" fill="url(#c)"/><path d="M455.639,1055.325S604.25,854.473,929.6,946.388s291.41-281.245,702.813,14.664,741.21,94.272,741.21,94.272v943.541l-1920.691,3.576" transform="translate(-453.624)" fill="url(#a)"/><g transform="translate(-0.691 844.733)" clip-path="url(#e)"><g transform="translate(1192.765 139.267)"><path d="M1054.859,420.016V770.839H921.925c1.986-23.551-3.451-46.878-19.014-67.419-22.693-29.942-62.837-48.395-104.967-58.815-45.972-11.39-97.707-4.849-141.53-18.8-19.079-6.068-36.143-17.582-41.8-32.752-5.209-14.051-.2-28.947,1.758-43.5,1.921-14.523-.619-31.335-15.986-40.014-15.856-8.978-38-5.471-57.074-1.567-31.353,6.416-98,31.633-119.455-.647-14.749-22.183,17.874-44.813,28-68.488,10.744-25.192-6.58-53.692-34.023-69.906s-62.87-22.258-97.381-24.919c-26.144-2.014-52.907-2.437-77.683-9.052-24.809-6.615-47.991-21.114-52.972-40.81-10.06-39.765,53.753-67.867,65.865-107.284,7.554-24.545-7.2-50.658-31.581-67.941H380.81c-17.028,42.028-7.163,97.983,59.516,104.623,68.372,7.461,146.511-42.277,198.6,4.974,39.07,34.816-9.767,92.014,52.093,116.883,74.883,27.356,149.767-4.974,224.651-2.487.163,0,.329,0,.488,0,25.1.075,46.991,12.966,54.134,31.344C989.19,422.851,1022.839,408.054,1054.859,420.016Z" transform="translate(-182.175 -118.93)" fill="rgba(255,255,255,0.14)"/><path d="M1054.859,618.543v152.3H921.925c1.986-23.551-3.451-46.878-19.014-67.419-22.693-29.942-62.837-48.395-104.967-58.815-45.972-11.39-97.707-4.849-141.53-18.8-19.079-6.068-36.143-17.582-41.8-32.752-5.209-14.051-.2-28.947,1.758-43.5,1.921-14.523-.619-31.335-15.986-40.014-15.856-8.978-38-5.471-57.074-1.567-31.353,6.416-98,31.633-119.455-.647-14.749-22.183,17.874-44.813,28-68.488,10.744-25.192-6.58-53.692-34.023-69.906s-62.87-22.258-97.381-24.919c-26.144-2.014-52.907-2.437-77.683-9.052-24.809-6.615-47.991-21.114-52.972-40.81-10.06-39.765,53.753-67.867,65.865-107.284,7.554-24.545-7.2-50.658-31.581-67.941h88.07c4.3,24.869,2.181,51.528-2.93,66.051-9.377,26.56-32.232,52.6-23.507,79.306,9.767,29.942,55.577,44.714,95.981,44.59s79.862-10.445,120.269-10.42c31.809.025,67.2,8.828,80.939,30.738,23.507,37.452-30.735,78.884-25.167,120.191,5.34,39.666,64.107,62.893,116.3,63.639s103.111-13.255,155.3-14c39.135-.547,83.674,9.649,99.563,36.98,6.87,11.862,7.391,25.416,14.163,37.278,12.665,22.158,44.474,34.17,75.209,39.84C1030.343,615.36,1042.617,616.926,1054.859,618.543Z" transform="translate(-188.721 -113.93)" fill="#004197"/><path d="M380.217,187.076c0,8.05-8.543,14.576-19.079,14.576s-19.082-6.526-19.082-14.576S350.6,172.5,361.138,172.5,380.217,179.026,380.217,187.076Z" transform="translate(157.173 -34.278)" fill="#fff"/><path d="M408.878,356.5c0,8.05-8.543,14.576-19.082,14.576s-19.079-6.526-19.079-14.576,8.543-14.576,19.079-14.576S408.878,348.454,408.878,356.5Z" transform="translate(221.826 217.64)" fill="#fff"/><path d="M360.22,171.23c0,4.959-5.265,8.98-11.76,8.98s-11.757-4.021-11.757-8.98,5.265-8.98,11.757-8.98S360.22,166.271,360.22,171.23Z" transform="translate(145.097 -49.519)" fill="#f065a6"/><path d="M383.524,344.034c0,4.961-5.265,8.98-11.757,8.98s-11.757-4.019-11.757-8.98,5.265-8.978,11.757-8.978S383.524,339.075,383.524,344.034Z" transform="translate(197.676 207.422)" fill="#fff"/></g></g></g></svg>